# Blender 4.5.2 LTS
# www.blender.org
mtllib orange seed.mtl
o Sphere
v -0.000000 1.161857 3.599364
v -0.000000 0.554022 3.397342
v -0.000000 -0.240154 3.288009
v 0.000000 -0.693766 3.273940
v 0.000000 -0.888856 3.288009
v 0.000000 -1.249336 3.397342
v 0.025925 1.490815 3.866063
v 0.050854 1.365446 3.731341
v 0.073829 1.161857 3.607181
v 0.093967 0.887873 3.498353
v 0.110493 0.554022 3.409041
v 0.122774 0.173134 3.342676
v 0.130336 -0.240154 3.301808
v 0.132889 -0.693766 3.288009
v 0.130336 -0.888856 3.301808
v 0.122774 -1.076449 3.342676
v 0.110493 -1.249336 3.409041
v 0.093967 -1.400873 3.498353
v 0.073829 -1.525235 3.607181
v 0.050855 -1.617645 3.731341
v 0.025925 -1.674551 3.866063
v 0.050854 1.490815 3.874192
v 0.099755 1.365446 3.747287
v 0.144821 1.161857 3.630330
v 0.184323 0.887873 3.527817
v 0.216741 0.554022 3.443686
v 0.240829 0.173134 3.381172
v 0.255663 -0.240154 3.342676
v 0.260672 -0.693766 3.329677
v 0.255663 -0.888856 3.342676
v 0.240829 -1.076449 3.381172
v 0.216741 -1.249336 3.443686
v 0.184323 -1.400873 3.527817
v 0.144821 -1.525235 3.630330
v 0.099755 -1.617645 3.747287
v 0.050855 -1.674551 3.874192
v 0.073829 1.490815 3.887393
v 0.144821 1.365446 3.773181
v 0.210248 1.161857 3.667923
v 0.267595 0.887873 3.575664
v 0.314659 0.554022 3.499948
v 0.349630 0.173134 3.443686
v 0.371165 -0.240154 3.409041
v 0.378437 -0.693766 3.397342
v 0.371165 -0.888856 3.409041
v 0.349630 -1.076449 3.443686
v 0.314659 -1.249336 3.499948
v 0.267595 -1.400873 3.575664
v 0.210248 -1.525235 3.667923
v 0.144821 -1.617645 3.773181
v 0.073829 -1.674551 3.887393
v 0.093967 1.490815 3.905158
v 0.184323 1.365446 3.808029
v 0.267595 1.161857 3.718514
v 0.340584 0.887873 3.640054
v 0.400484 0.554022 3.575664
v 0.444994 0.173134 3.527817
v 0.472404 -0.240154 3.498353
v 0.481659 -0.693766 3.488405
v 0.472404 -0.888856 3.498353
v 0.444994 -1.076449 3.527817
v 0.400484 -1.249336 3.575664
v 0.340584 -1.400873 3.640054
v 0.267595 -1.525235 3.718514
v 0.184323 -1.617645 3.808029
v 0.093967 -1.674551 3.905158
v 0.110493 1.490815 3.926805
v 0.216741 1.365446 3.850491
v 0.314659 1.161857 3.780160
v 0.400484 0.887873 3.718514
v 0.470920 0.554022 3.667923
v 0.523258 0.173134 3.630330
v 0.555488 -0.240154 3.607181
v 0.566370 -0.693766 3.599364
v 0.555488 -0.888856 3.607181
v 0.523258 -1.076449 3.630330
v 0.470920 -1.249336 3.667923
v 0.400484 -1.400873 3.718514
v 0.314659 -1.525235 3.780160
v 0.216741 -1.617645 3.850491
v 0.110493 -1.674551 3.926805
v -0.000000 1.684592 4.000000
v 0.122774 1.490815 3.951502
v 0.240829 1.365446 3.898936
v 0.349630 1.161857 3.850491
v 0.444994 0.887873 3.808029
v 0.523258 0.554022 3.773181
v 0.581413 0.173134 3.747287
v 0.617225 -0.240154 3.731341
v 0.629317 -0.693766 3.725957
v 0.617225 -0.888856 3.731341
v 0.581413 -1.076449 3.747287
v 0.523258 -1.249336 3.773181
v 0.444994 -1.400873 3.808029
v 0.349630 -1.525235 3.850491
v 0.240829 -1.617645 3.898936
v 0.122774 -1.674551 3.951502
v 0.130336 1.490815 3.978300
v 0.255663 1.365446 3.951502
v 0.371165 1.161857 3.926805
v 0.472404 0.887873 3.905158
v 0.555488 0.554022 3.887393
v 0.617225 0.173134 3.874192
v 0.655243 -0.240154 3.866063
v 0.668079 -0.693766 3.863318
v 0.655243 -0.888856 3.866063
v 0.617225 -1.076449 3.874192
v 0.555488 -1.249336 3.887393
v 0.472404 -1.400873 3.905158
v 0.371165 -1.525235 3.926805
v 0.255663 -1.617645 3.951502
v 0.130336 -1.674551 3.978300
v 0.132889 1.490815 4.000000
v 0.260672 1.365446 4.000000
v 0.378437 1.161857 4.000000
v 0.481658 0.887873 4.000000
v 0.566370 0.554022 4.000000
v 0.629317 0.173134 4.000000
v 0.668079 -0.240154 4.000000
v 0.681168 -0.693766 4.000000
v 0.668079 -0.888856 4.000000
v 0.629317 -1.076449 4.000000
v 0.566370 -1.249336 4.000000
v 0.481659 -1.400873 4.000000
v 0.378437 -1.525236 4.000000
v 0.260672 -1.617646 4.000000
v 0.132889 -1.674551 4.000000
v 0.130336 1.490815 4.038060
v 0.255663 1.365446 4.074658
v 0.371165 1.161857 4.108387
v 0.472404 0.887873 4.137949
v 0.555488 0.554022 4.162212
v 0.617225 0.173134 4.180240
v 0.655243 -0.240154 4.191342
v 0.668079 -0.693766 4.195090
v 0.655243 -0.888856 4.191342
v 0.617225 -1.076449 4.180240
v 0.555488 -1.249336 4.162212
v 0.472404 -1.400873 4.137949
v 0.371165 -1.525236 4.108387
v 0.255663 -1.617646 4.074658
v 0.130336 -1.674551 4.038060
v 0.122774 1.490815 4.074658
v 0.240829 1.365446 4.146447
v 0.349630 1.161857 4.212607
v 0.444994 0.887873 4.270598
v 0.523258 0.554022 4.318190
v 0.581413 0.173134 4.353553
v 0.617225 -0.240154 4.375330
v 0.629317 -0.693766 4.382683
v 0.617225 -0.888856 4.375330
v 0.581413 -1.076449 4.353553
v 0.523258 -1.249336 4.318190
v 0.444994 -1.400873 4.270598
v 0.349630 -1.525236 4.212607
v 0.240829 -1.617646 4.146447
v 0.122774 -1.674551 4.074658
v 0.110493 1.490815 4.108387
v 0.216741 1.365446 4.212607
v 0.314658 1.161857 4.308658
v 0.400484 0.887873 4.392848
v 0.470920 0.554022 4.461940
v 0.523258 0.173134 4.513280
v 0.555488 -0.240154 4.544895
v 0.566370 -0.693766 4.555570
v 0.555488 -0.888856 4.544895
v 0.523258 -1.076449 4.513280
v 0.470920 -1.249336 4.461940
v 0.400484 -1.400873 4.392848
v 0.314658 -1.525236 4.308658
v 0.216741 -1.617646 4.212607
v 0.110493 -1.674551 4.108387
v 0.093967 1.490815 4.137949
v 0.184323 1.365446 4.270598
v 0.267595 1.161857 4.392848
v 0.340584 0.887873 4.500000
v 0.400484 0.554022 4.587938
v 0.444994 0.173134 4.653281
v 0.472403 -0.240154 4.693520
v 0.481658 -0.693766 4.707107
v 0.472403 -0.888856 4.693520
v 0.444994 -1.076449 4.653281
v 0.400484 -1.249336 4.587938
v 0.340584 -1.400873 4.500000
v 0.267595 -1.525236 4.392848
v 0.184323 -1.617646 4.270598
v 0.093967 -1.674551 4.137949
v 0.073829 1.490815 4.162211
v 0.144821 1.365446 4.318190
v 0.210248 1.161857 4.461940
v 0.267595 0.887873 4.587938
v 0.314658 0.554022 4.691341
v 0.349630 0.173134 4.768178
v 0.371165 -0.240154 4.815493
v 0.378436 -0.693766 4.831470
v 0.371165 -0.888856 4.815493
v 0.349630 -1.076449 4.768178
v 0.314658 -1.249336 4.691341
v 0.267595 -1.400873 4.587938
v 0.210248 -1.525236 4.461940
v 0.144821 -1.617646 4.318190
v 0.073829 -1.674551 4.162211
v 0.050854 1.490815 4.187043
v 0.099755 1.365446 4.363430
v 0.144821 1.161857 4.525989
v 0.184323 0.887873 4.668473
v 0.216740 0.554022 4.785406
v 0.240829 0.173134 4.872296
v 0.255663 -0.240154 4.925802
v 0.260671 -0.693766 4.943869
v 0.255663 -0.888856 4.925802
v 0.240829 -1.076449 4.872296
v 0.216740 -1.249336 4.785406
v 0.184323 -1.400873 4.668473
v 0.144821 -1.525236 4.525989
v 0.099755 -1.617646 4.363430
v 0.050855 -1.674551 4.187043
v 0.025925 1.490815 4.191341
v 0.050854 1.365446 4.375330
v 0.073829 1.161857 4.544895
v 0.093967 0.887873 4.693520
v 0.110493 0.554022 4.815493
v 0.122774 0.173134 4.906127
v 0.130336 -0.240154 4.961939
v 0.132889 -0.693766 4.980785
v 0.130336 -0.888856 4.961939
v 0.122774 -1.076449 4.906127
v 0.110493 -1.249336 4.815493
v 0.093967 -1.400873 4.693520
v 0.073829 -1.525236 4.544895
v 0.050854 -1.617646 4.375330
v 0.025925 -1.674551 4.191341
v -0.000000 1.521521 4.235887
v -0.000000 1.367392 4.422006
v -0.000000 1.161857 4.625509
v -0.000000 0.887873 4.803882
v -0.000000 0.554022 4.950267
v -0.000000 0.173134 5.059042
v -0.000000 -0.240154 5.126025
v -0.000000 -0.693766 5.148643
v -0.000000 -0.888856 5.126025
v 0.000000 -1.076449 5.059042
v -0.000000 -1.249336 4.950267
v -0.000000 -1.400873 4.803882
v -0.000000 -1.525235 4.625509
v -0.000000 -1.617646 4.422006
v -0.000000 -1.674551 4.201192
v -0.025925 1.490815 4.191341
v -0.050855 1.365446 4.375330
v -0.073829 1.161857 4.544895
v -0.093967 0.887873 4.693520
v -0.110493 0.554022 4.815493
v -0.122774 0.173134 4.906127
v -0.130336 -0.240154 4.961939
v -0.132889 -0.693766 4.980784
v -0.130336 -0.888856 4.961939
v -0.122774 -1.076449 4.906127
v -0.110493 -1.249336 4.815493
v -0.093967 -1.400873 4.693520
v -0.073829 -1.525236 4.544895
v -0.050855 -1.617646 4.375330
v -0.025925 -1.674551 4.191341
v -0.050855 1.490815 4.187043
v -0.099755 1.365446 4.363430
v -0.144821 1.161857 4.525989
v -0.184323 0.887873 4.668473
v -0.216741 0.554022 4.785406
v -0.240829 0.173134 4.872296
v -0.255663 -0.240154 4.925802
v -0.260672 -0.693766 4.943869
v -0.255663 -0.888856 4.925802
v -0.240829 -1.076449 4.872296
v -0.216741 -1.249336 4.785406
v -0.184323 -1.400873 4.668473
v -0.144821 -1.525236 4.525989
v -0.099755 -1.617646 4.363430
v -0.050855 -1.674551 4.187043
v -0.073829 1.490815 4.162211
v -0.144821 1.365446 4.318190
v -0.210248 1.161857 4.461939
v -0.267595 0.887873 4.587938
v -0.314659 0.554022 4.691341
v -0.349630 0.173134 4.768178
v -0.371165 -0.240154 4.815493
v -0.378437 -0.693766 4.831469
v -0.371165 -0.888856 4.815493
v -0.349630 -1.076449 4.768178
v -0.314659 -1.249336 4.691341
v -0.267595 -1.400873 4.587938
v -0.210248 -1.525236 4.461939
v -0.144821 -1.617646 4.318190
v -0.073829 -1.674551 4.162211
v -0.093967 1.490815 4.137949
v -0.184323 1.365446 4.270598
v -0.267595 1.161857 4.392847
v -0.340584 0.887873 4.500000
v -0.400484 0.554022 4.587937
v -0.444994 0.173134 4.653281
v -0.472404 -0.240154 4.693520
v -0.481658 -0.693766 4.707106
v -0.472404 -0.888856 4.693520
v -0.444994 -1.076449 4.653281
v -0.400484 -1.249336 4.587937
v -0.340584 -1.400873 4.500000
v -0.267595 -1.525236 4.392847
v -0.184323 -1.617646 4.270598
v -0.093967 -1.674551 4.137949
v 0.000000 -1.693766 4.000000
v -0.110493 1.490815 4.108386
v -0.216741 1.365446 4.212607
v -0.314658 1.161857 4.308658
v -0.400484 0.887873 4.392848
v -0.470920 0.554022 4.461939
v -0.523258 0.173134 4.513280
v -0.555488 -0.240154 4.544895
v -0.566370 -0.693766 4.555570
v -0.555488 -0.888856 4.544895
v -0.523258 -1.076449 4.513280
v -0.470920 -1.249336 4.461939
v -0.400484 -1.400873 4.392848
v -0.314658 -1.525236 4.308658
v -0.216741 -1.617646 4.212607
v -0.110493 -1.674551 4.108386
v -0.122774 1.490815 4.074658
v -0.240829 1.365446 4.146447
v -0.349630 1.161857 4.212607
v -0.444994 0.887873 4.270598
v -0.523258 0.554022 4.318189
v -0.581413 0.173134 4.353553
v -0.617225 -0.240154 4.375330
v -0.629317 -0.693766 4.382683
v -0.617225 -0.888856 4.375330
v -0.581413 -1.076449 4.353553
v -0.523258 -1.249336 4.318189
v -0.444994 -1.400873 4.270598
v -0.349630 -1.525236 4.212607
v -0.240829 -1.617646 4.146447
v -0.122774 -1.674551 4.074658
v -0.130336 1.490815 4.038060
v -0.255663 1.365446 4.074658
v -0.371165 1.161857 4.108386
v -0.472404 0.887873 4.137949
v -0.555488 0.554022 4.162211
v -0.617225 0.173134 4.180240
v -0.655242 -0.240154 4.191341
v -0.668079 -0.693766 4.195090
v -0.655242 -0.888856 4.191341
v -0.617225 -1.076449 4.180240
v -0.555488 -1.249336 4.162211
v -0.472404 -1.400873 4.137949
v -0.371165 -1.525236 4.108386
v -0.255663 -1.617646 4.074658
v -0.130336 -1.674551 4.038060
v -0.132889 1.490815 4.000000
v -0.260672 1.365446 4.000000
v -0.378436 1.161857 4.000000
v -0.481658 0.887873 4.000000
v -0.566370 0.554022 4.000000
v -0.629317 0.173134 4.000000
v -0.668079 -0.240154 4.000000
v -0.681167 -0.693766 4.000000
v -0.668079 -0.888856 4.000000
v -0.629317 -1.076449 4.000000
v -0.566370 -1.249336 4.000000
v -0.481658 -1.400873 4.000000
v -0.378436 -1.525236 4.000000
v -0.260672 -1.617646 4.000000
v -0.132889 -1.674551 4.000000
v -0.130336 1.490815 3.978300
v -0.255663 1.365446 3.951502
v -0.371165 1.161857 3.926805
v -0.472404 0.887873 3.905158
v -0.555488 0.554022 3.887393
v -0.617225 0.173134 3.874192
v -0.655242 -0.240154 3.866062
v -0.668079 -0.693766 3.863317
v -0.655242 -0.888856 3.866062
v -0.617225 -1.076449 3.874192
v -0.555488 -1.249336 3.887393
v -0.472403 -1.400873 3.905158
v -0.371165 -1.525235 3.926805
v -0.255663 -1.617645 3.951502
v -0.130336 -1.674551 3.978300
v -0.122774 1.490815 3.951502
v -0.240829 1.365446 3.898936
v -0.349630 1.161857 3.850491
v -0.444994 0.887873 3.808029
v -0.523258 0.554022 3.773181
v -0.581413 0.173134 3.747287
v -0.617225 -0.240154 3.731341
v -0.629317 -0.693766 3.725957
v -0.617225 -0.888856 3.731341
v -0.581413 -1.076449 3.747287
v -0.523258 -1.249336 3.773181
v -0.444994 -1.400873 3.808029
v -0.349630 -1.525235 3.850491
v -0.240829 -1.617645 3.898936
v -0.122774 -1.674551 3.951502
v -0.110493 1.490815 3.926805
v -0.216741 1.365446 3.850491
v -0.314658 1.161857 3.780160
v -0.400484 0.887873 3.718514
v -0.470920 0.554022 3.667923
v -0.523258 0.173134 3.630330
v -0.555488 -0.240154 3.607181
v -0.566370 -0.693766 3.599364
v -0.555488 -0.888856 3.607181
v -0.523258 -1.076449 3.630330
v -0.470920 -1.249336 3.667923
v -0.400484 -1.400873 3.718514
v -0.314658 -1.525235 3.780160
v -0.216740 -1.617645 3.850491
v -0.110493 -1.674551 3.926805
v -0.093967 1.490815 3.905158
v -0.184323 1.365446 3.808029
v -0.267595 1.161857 3.718514
v -0.340584 0.887873 3.640054
v -0.400484 0.554022 3.575664
v -0.444994 0.173134 3.527817
v -0.472403 -0.240154 3.498353
v -0.481658 -0.693766 3.488405
v -0.472403 -0.888856 3.498353
v -0.444994 -1.076449 3.527817
v -0.400484 -1.249336 3.575664
v -0.340584 -1.400873 3.640054
v -0.267595 -1.525235 3.718514
v -0.184323 -1.617645 3.808029
v -0.093967 -1.674551 3.905158
v -0.073829 1.490815 3.887393
v -0.144821 1.365446 3.773181
v -0.210248 1.161857 3.667923
v -0.267595 0.887873 3.575664
v -0.314658 0.554022 3.499949
v -0.349630 0.173134 3.443687
v -0.371165 -0.240154 3.409041
v -0.378436 -0.693766 3.397343
v -0.371165 -0.888856 3.409041
v -0.349630 -1.076449 3.443687
v -0.314658 -1.249336 3.499949
v -0.267595 -1.400873 3.575664
v -0.210248 -1.525235 3.667923
v -0.144821 -1.617645 3.773181
v -0.073829 -1.674551 3.887393
v -0.050855 1.490815 3.874192
v -0.099755 1.365446 3.747287
v -0.144821 1.161857 3.630330
v -0.184323 0.887873 3.527817
v -0.216740 0.554022 3.443687
v -0.240829 0.173134 3.381172
v -0.255663 -0.240154 3.342676
v -0.260671 -0.693766 3.329678
v -0.255663 -0.888856 3.342676
v -0.240829 -1.076449 3.381172
v -0.216740 -1.249336 3.443687
v -0.184323 -1.400873 3.527817
v -0.144821 -1.525235 3.630330
v -0.099755 -1.617645 3.747287
v -0.050854 -1.674551 3.874192
v -0.025925 1.490815 3.866063
v -0.050855 1.365446 3.731341
v -0.073829 1.161857 3.607181
v -0.093967 0.887873 3.498353
v -0.110493 0.554022 3.409041
v -0.122774 0.173134 3.342676
v -0.130336 -0.240154 3.301809
v -0.132889 -0.693766 3.288010
v -0.130336 -0.888856 3.301809
v -0.122774 -1.076449 3.342676
v -0.110493 -1.249336 3.409041
v -0.093967 -1.400873 3.498353
v -0.073829 -1.525235 3.607181
v -0.050854 -1.617645 3.731341
v -0.025925 -1.674551 3.866063
v -0.000000 1.490815 3.863318
v -0.000000 1.365446 3.725957
v 0.000000 0.887873 3.488405
v 0.000000 0.173134 3.329678
v 0.000000 -1.076449 3.329678
v 0.000000 -1.400873 3.488405
v 0.000000 -1.525235 3.599365
v 0.000000 -1.617645 3.725957
v 0.000000 -1.674551 3.863318
vn -0.0000 0.4518 -0.8921
vn -0.0000 0.2188 -0.9758
vn -0.0000 0.0656 -0.9978
vn -0.0000 -0.0204 -0.9998
vn -0.0000 -0.1443 -0.9895
vn -0.0000 -0.4398 -0.8981
vn 0.1570 0.6629 -0.7321
vn 0.1621 0.6350 -0.7553
vn 0.1877 0.4507 -0.8727
vn 0.1994 0.3181 -0.9268
vn 0.2052 0.2182 -0.9541
vn 0.2083 0.1371 -0.9684
vn 0.2098 0.0654 -0.9755
vn 0.2104 -0.0204 -0.9774
vn 0.2084 -0.1439 -0.9674
vn 0.2014 -0.2897 -0.9357
vn 0.1890 -0.4387 -0.8785
vn 0.1696 -0.5897 -0.7896
vn 0.1414 -0.7374 -0.6605
vn 0.1031 -0.8689 -0.4841
vn 0.0555 -0.9631 -0.2635
vn 0.3064 0.6601 -0.6858
vn 0.3165 0.6313 -0.7080
vn 0.3656 0.4474 -0.8162
vn 0.3880 0.3156 -0.8659
vn 0.3992 0.2164 -0.8910
vn 0.4051 0.1359 -0.9041
vn 0.4080 0.0648 -0.9107
vn 0.4090 -0.0202 -0.9123
vn 0.4051 -0.1426 -0.9031
vn 0.3919 -0.2873 -0.8740
vn 0.3680 -0.4355 -0.8215
vn 0.3307 -0.5862 -0.7396
vn 0.2765 -0.7342 -0.6201
vn 0.2021 -0.8668 -0.4558
vn 0.1091 -0.9624 -0.2487
vn 0.4413 0.6562 -0.6121
vn 0.4562 0.6257 -0.6328
vn 0.5252 0.4427 -0.7268
vn 0.5567 0.3120 -0.7699
vn 0.5724 0.2138 -0.7916
vn 0.5806 0.1343 -0.8030
vn 0.5847 0.0640 -0.8087
vn 0.5861 -0.0199 -0.8100
vn 0.5806 -0.1408 -0.8019
vn 0.5621 -0.2839 -0.7768
vn 0.5286 -0.4308 -0.7314
vn 0.4761 -0.5810 -0.6601
vn 0.3993 -0.7295 -0.5553
vn 0.2932 -0.8637 -0.4099
vn 0.1590 -0.9614 -0.2246
vn 0.5563 0.6519 -0.5153
vn 0.5760 0.6191 -0.5339
vn 0.6605 0.4371 -0.6105
vn 0.6989 0.3078 -0.6456
vn 0.7181 0.2108 -0.6632
vn 0.7282 0.1323 -0.6725
vn 0.7332 0.0631 -0.6771
vn 0.7348 -0.0197 -0.6780
vn 0.7280 -0.1387 -0.6714
vn 0.7055 -0.2799 -0.6511
vn 0.6646 -0.4253 -0.6143
vn 0.6003 -0.5749 -0.5560
vn 0.5053 -0.7239 -0.4696
vn 0.3729 -0.8600 -0.3484
vn 0.2033 -0.9601 -0.1919
vn 0.6478 0.6480 -0.4006
vn 0.6722 0.6122 -0.4164
vn 0.7676 0.4315 -0.4739
vn 0.8109 0.3036 -0.5002
vn 0.8326 0.2079 -0.5134
vn 0.8439 0.1305 -0.5204
vn 0.8496 0.0622 -0.5238
vn 0.8513 -0.0194 -0.5244
vn 0.8436 -0.1366 -0.5193
vn 0.8183 -0.2759 -0.5043
vn 0.7723 -0.4199 -0.4767
vn 0.6994 -0.5687 -0.4329
vn 0.5910 -0.7183 -0.3671
vn 0.4383 -0.8561 -0.2738
vn 0.2402 -0.9588 -0.1516
vn -0.0000 0.9959 -0.0901
vn 0.7134 0.6453 -0.2732
vn 0.7424 0.6062 -0.2851
vn 0.8447 0.4267 -0.3232
vn 0.8910 0.3001 -0.3405
vn 0.9142 0.2055 -0.3492
vn 0.9264 0.1290 -0.3538
vn 0.9324 0.0615 -0.3561
vn 0.9341 -0.0191 -0.3564
vn 0.9259 -0.1348 -0.3530
vn 0.8989 -0.2725 -0.3432
vn 0.8497 -0.4152 -0.3251
vn 0.7713 -0.5634 -0.2959
vn 0.6540 -0.7133 -0.2519
vn 0.4872 -0.8527 -0.1887
vn 0.2682 -0.9576 -0.1049
vn 0.7514 0.6434 -0.1465
vn 0.7841 0.6023 -0.1496
vn 0.8903 0.4235 -0.1672
vn 0.9384 0.2978 -0.1751
vn 0.9625 0.2038 -0.1790
vn 0.9751 0.1279 -0.1810
vn 0.9814 0.0610 -0.1820
vn 0.9831 -0.0190 -0.1821
vn 0.9745 -0.1336 -0.1805
vn 0.9466 -0.2701 -0.1757
vn 0.8958 -0.4120 -0.1669
vn 0.8144 -0.5598 -0.1526
vn 0.6919 -0.7100 -0.1308
vn 0.5166 -0.8505 -0.0993
vn 0.2838 -0.9573 -0.0561
vn 0.7640 0.6450 -0.0173
vn 0.7990 0.6012 -0.0145
vn 0.9061 0.4227 -0.0145
vn 0.9547 0.2972 -0.0144
vn 0.9790 0.2034 -0.0142
vn 0.9917 0.1276 -0.0142
vn 0.9980 0.0609 -0.0141
vn 0.9997 -0.0189 -0.0141
vn 0.9910 -0.1333 -0.0140
vn 0.9629 -0.2696 -0.0137
vn 0.9114 -0.4113 -0.0133
vn 0.8291 -0.5590 -0.0125
vn 0.7049 -0.7092 -0.0114
vn 0.5269 -0.8499 -0.0096
vn 0.2912 -0.9566 -0.0065
vn 0.7552 0.6474 0.1023
vn 0.7881 0.6063 0.1068
vn 0.8961 0.4268 0.1214
vn 0.9452 0.3003 0.1281
vn 0.9698 0.2056 0.1314
vn 0.9827 0.1290 0.1331
vn 0.9891 0.0615 0.1340
vn 0.9908 -0.0191 0.1342
vn 0.9819 -0.1348 0.1330
vn 0.9534 -0.2725 0.1292
vn 0.9015 -0.4153 0.1221
vn 0.8185 -0.5636 0.1109
vn 0.6941 -0.7137 0.0941
vn 0.5170 -0.8531 0.0700
vn 0.2831 -0.9583 0.0384
vn 0.7240 0.6589 0.2043
vn 0.7567 0.6180 0.2135
vn 0.8654 0.4376 0.2442
vn 0.9154 0.3087 0.2583
vn 0.9406 0.2117 0.2654
vn 0.9539 0.1330 0.2691
vn 0.9605 0.0634 0.2710
vn 0.9622 -0.0197 0.2715
vn 0.9531 -0.1389 0.2689
vn 0.9238 -0.2803 0.2607
vn 0.8708 -0.4259 0.2457
vn 0.7871 -0.5754 0.2221
vn 0.6636 -0.7243 0.1872
vn 0.4909 -0.8601 0.1385
vn 0.2673 -0.9607 0.0754
vn 0.6697 0.6772 0.3048
vn 0.7018 0.6368 0.3194
vn 0.8104 0.4553 0.3688
vn 0.8614 0.3228 0.3921
vn 0.8875 0.2219 0.4039
vn 0.9013 0.1396 0.4102
vn 0.9081 0.0666 0.4133
vn 0.9100 -0.0207 0.4142
vn 0.9004 -0.1458 0.4098
vn 0.8701 -0.2933 0.3960
vn 0.8158 -0.4433 0.3713
vn 0.7319 -0.5945 0.3331
vn 0.6111 -0.7411 0.2781
vn 0.4474 -0.8709 0.2036
vn 0.2414 -0.9642 0.1099
vn 0.5895 0.7009 0.4015
vn 0.6199 0.6614 0.4222
vn 0.7254 0.4792 0.4941
vn 0.7766 0.3422 0.5290
vn 0.8031 0.2361 0.5471
vn 0.8173 0.1488 0.5567
vn 0.8244 0.0711 0.5615
vn 0.8263 -0.0221 0.5628
vn 0.8164 -0.1555 0.5561
vn 0.7854 -0.3113 0.5350
vn 0.7308 -0.4670 0.4978
vn 0.6487 -0.6196 0.4419
vn 0.5347 -0.7625 0.3642
vn 0.3862 -0.8841 0.2631
vn 0.2062 -0.9684 0.1405
vn 0.5238 0.7146 0.4636
vn 0.5413 0.6826 0.4910
vn 0.6374 0.5006 0.5857
vn 0.6851 0.3599 0.6334
vn 0.7100 0.2493 0.6586
vn 0.7233 0.1575 0.6723
vn 0.7301 0.0754 0.6792
vn 0.7318 -0.0235 0.6811
vn 0.7221 -0.1648 0.6719
vn 0.6918 -0.3284 0.6430
vn 0.6395 -0.4889 0.5933
vn 0.5629 -0.6421 0.5204
vn 0.4599 -0.7810 0.4226
vn 0.3302 -0.8951 0.2996
vn 0.1747 -0.9723 0.1555
vn 0.3226 0.7672 0.5543
vn 0.3535 0.7179 0.5997
vn 0.4290 0.5404 0.7238
vn 0.4694 0.3945 0.7900
vn 0.4914 0.2756 0.8261
vn 0.5036 0.1750 0.8460
vn 0.5098 0.0839 0.8562
vn 0.5115 -0.0261 0.8589
vn 0.5031 -0.1821 0.8448
vn 0.4773 -0.3596 0.8018
vn 0.4343 -0.5275 0.7301
vn 0.3746 -0.6799 0.6304
vn 0.2990 -0.8100 0.5044
vn 0.2097 -0.9108 0.3557
vn 0.1113 -0.9753 0.1909
vn 0.5509 0.6637 0.5060
vn 0.4514 0.6800 0.5778
vn 0.4544 0.5372 0.7105
vn 0.5180 0.3840 0.7644
vn 0.5521 0.2643 0.7908
vn 0.5703 0.1662 0.8045
vn 0.5795 0.0794 0.8111
vn 0.5830 -0.0248 0.8121
vn 0.5746 -0.1748 0.7995
vn 0.5448 -0.3477 0.7631
vn 0.4928 -0.5157 0.7009
vn 0.4159 -0.6737 0.6108
vn 0.3125 -0.8128 0.4916
vn 0.1848 -0.9201 0.3454
vn 0.0748 -0.9805 0.1817
vn -0.0000 0.8273 0.5618
vn -0.0000 0.7476 0.6641
vn -0.0000 0.6026 0.7980
vn -0.0000 0.4562 0.8899
vn -0.0000 0.3263 0.9453
vn -0.0000 0.2102 0.9777
vn -0.0000 0.1015 0.9948
vn -0.0000 -0.0313 0.9995
vn -0.0000 -0.2150 0.9766
vn -0.0000 -0.4158 0.9095
vn -0.0000 -0.5916 0.8062
vn -0.0000 -0.7365 0.6765
vn -0.0000 -0.8488 0.5288
vn -0.0000 -0.9296 0.3685
vn -0.0000 -0.9816 0.1908
vn -0.5509 0.6637 0.5060
vn -0.4514 0.6800 0.5778
vn -0.4544 0.5372 0.7105
vn -0.5180 0.3840 0.7644
vn -0.5521 0.2643 0.7908
vn -0.5703 0.1662 0.8045
vn -0.5795 0.0794 0.8111
vn -0.5830 -0.0248 0.8121
vn -0.5746 -0.1748 0.7995
vn -0.5448 -0.3477 0.7631
vn -0.4928 -0.5157 0.7009
vn -0.4159 -0.6737 0.6108
vn -0.3125 -0.8128 0.4916
vn -0.1848 -0.9201 0.3454
vn -0.0748 -0.9805 0.1817
vn -0.3226 0.7672 0.5543
vn -0.3535 0.7179 0.5997
vn -0.4290 0.5404 0.7238
vn -0.4694 0.3945 0.7900
vn -0.4914 0.2756 0.8261
vn -0.5036 0.1750 0.8460
vn -0.5098 0.0839 0.8562
vn -0.5115 -0.0261 0.8589
vn -0.5031 -0.1821 0.8448
vn -0.4773 -0.3596 0.8018
vn -0.4343 -0.5275 0.7301
vn -0.3746 -0.6799 0.6304
vn -0.2990 -0.8100 0.5044
vn -0.2097 -0.9108 0.3557
vn -0.1113 -0.9753 0.1909
vn -0.5238 0.7146 0.4636
vn -0.5413 0.6826 0.4910
vn -0.6374 0.5006 0.5857
vn -0.6851 0.3599 0.6334
vn -0.7100 0.2493 0.6586
vn -0.7233 0.1575 0.6723
vn -0.7301 0.0754 0.6792
vn -0.7318 -0.0235 0.6811
vn -0.7221 -0.1648 0.6719
vn -0.6918 -0.3284 0.6430
vn -0.6395 -0.4889 0.5933
vn -0.5629 -0.6421 0.5204
vn -0.4599 -0.7810 0.4226
vn -0.3302 -0.8951 0.2996
vn -0.1747 -0.9723 0.1555
vn -0.5895 0.7009 0.4015
vn -0.6199 0.6614 0.4222
vn -0.7254 0.4792 0.4941
vn -0.7766 0.3422 0.5290
vn -0.8031 0.2361 0.5471
vn -0.8173 0.1488 0.5567
vn -0.8244 0.0711 0.5615
vn -0.8263 -0.0221 0.5628
vn -0.8164 -0.1555 0.5561
vn -0.7854 -0.3113 0.5350
vn -0.7308 -0.4670 0.4978
vn -0.6487 -0.6196 0.4419
vn -0.5347 -0.7625 0.3642
vn -0.3862 -0.8841 0.2631
vn -0.2062 -0.9684 0.1405
vn -0.0000 -0.9998 -0.0191
vn -0.6697 0.6772 0.3048
vn -0.7018 0.6368 0.3194
vn -0.8104 0.4553 0.3688
vn -0.8614 0.3228 0.3921
vn -0.8875 0.2219 0.4039
vn -0.9013 0.1396 0.4102
vn -0.9081 0.0666 0.4133
vn -0.9100 -0.0207 0.4142
vn -0.9004 -0.1458 0.4098
vn -0.8701 -0.2933 0.3960
vn -0.8158 -0.4433 0.3713
vn -0.7319 -0.5945 0.3331
vn -0.6111 -0.7411 0.2781
vn -0.4474 -0.8709 0.2036
vn -0.2414 -0.9642 0.1099
vn -0.7240 0.6589 0.2043
vn -0.7567 0.6180 0.2135
vn -0.8654 0.4376 0.2442
vn -0.9154 0.3087 0.2583
vn -0.9406 0.2117 0.2654
vn -0.9539 0.1330 0.2691
vn -0.9605 0.0634 0.2710
vn -0.9622 -0.0197 0.2715
vn -0.9531 -0.1389 0.2689
vn -0.9238 -0.2803 0.2607
vn -0.8708 -0.4259 0.2457
vn -0.7871 -0.5754 0.2221
vn -0.6636 -0.7243 0.1872
vn -0.4909 -0.8601 0.1385
vn -0.2673 -0.9607 0.0754
vn -0.7552 0.6474 0.1023
vn -0.7881 0.6063 0.1068
vn -0.8961 0.4268 0.1214
vn -0.9452 0.3003 0.1281
vn -0.9698 0.2056 0.1314
vn -0.9827 0.1290 0.1331
vn -0.9891 0.0615 0.1340
vn -0.9908 -0.0191 0.1342
vn -0.9819 -0.1348 0.1330
vn -0.9534 -0.2725 0.1292
vn -0.9015 -0.4153 0.1221
vn -0.8185 -0.5636 0.1109
vn -0.6941 -0.7137 0.0941
vn -0.5170 -0.8531 0.0700
vn -0.2831 -0.9583 0.0384
vn -0.7640 0.6450 -0.0173
vn -0.7990 0.6012 -0.0145
vn -0.9061 0.4227 -0.0145
vn -0.9547 0.2972 -0.0144
vn -0.9790 0.2034 -0.0142
vn -0.9917 0.1276 -0.0142
vn -0.9980 0.0609 -0.0141
vn -0.9997 -0.0189 -0.0141
vn -0.9910 -0.1333 -0.0140
vn -0.9629 -0.2696 -0.0137
vn -0.9114 -0.4113 -0.0133
vn -0.8291 -0.5590 -0.0125
vn -0.7049 -0.7092 -0.0114
vn -0.5269 -0.8499 -0.0096
vn -0.2912 -0.9566 -0.0065
vn -0.7514 0.6434 -0.1465
vn -0.7841 0.6023 -0.1496
vn -0.8903 0.4235 -0.1672
vn -0.9384 0.2978 -0.1751
vn -0.9625 0.2038 -0.1790
vn -0.9751 0.1279 -0.1810
vn -0.9814 0.0610 -0.1820
vn -0.9831 -0.0190 -0.1821
vn -0.9745 -0.1336 -0.1805
vn -0.9466 -0.2701 -0.1757
vn -0.8958 -0.4120 -0.1669
vn -0.8144 -0.5598 -0.1526
vn -0.6919 -0.7100 -0.1308
vn -0.5166 -0.8505 -0.0993
vn -0.2838 -0.9573 -0.0561
vn -0.7134 0.6453 -0.2732
vn -0.7424 0.6062 -0.2851
vn -0.8447 0.4267 -0.3232
vn -0.8910 0.3001 -0.3405
vn -0.9142 0.2055 -0.3492
vn -0.9264 0.1290 -0.3538
vn -0.9324 0.0615 -0.3561
vn -0.9341 -0.0191 -0.3564
vn -0.9259 -0.1348 -0.3530
vn -0.8989 -0.2725 -0.3432
vn -0.8497 -0.4152 -0.3251
vn -0.7713 -0.5634 -0.2959
vn -0.6540 -0.7133 -0.2519
vn -0.4872 -0.8527 -0.1887
vn -0.2682 -0.9576 -0.1049
vn -0.6478 0.6480 -0.4006
vn -0.6722 0.6122 -0.4164
vn -0.7676 0.4315 -0.4739
vn -0.8109 0.3036 -0.5002
vn -0.8326 0.2079 -0.5134
vn -0.8439 0.1305 -0.5204
vn -0.8496 0.0622 -0.5238
vn -0.8513 -0.0194 -0.5244
vn -0.8436 -0.1366 -0.5193
vn -0.8183 -0.2759 -0.5043
vn -0.7723 -0.4199 -0.4768
vn -0.6994 -0.5687 -0.4329
vn -0.5910 -0.7183 -0.3671
vn -0.4383 -0.8561 -0.2738
vn -0.2402 -0.9588 -0.1516
vn -0.5563 0.6519 -0.5153
vn -0.5760 0.6191 -0.5339
vn -0.6605 0.4371 -0.6105
vn -0.6989 0.3078 -0.6456
vn -0.7181 0.2108 -0.6632
vn -0.7282 0.1323 -0.6725
vn -0.7332 0.0631 -0.6771
vn -0.7348 -0.0197 -0.6780
vn -0.7280 -0.1387 -0.6714
vn -0.7055 -0.2799 -0.6511
vn -0.6646 -0.4253 -0.6143
vn -0.6003 -0.5749 -0.5560
vn -0.5053 -0.7239 -0.4696
vn -0.3729 -0.8600 -0.3484
vn -0.2032 -0.9601 -0.1919
vn -0.4413 0.6562 -0.6121
vn -0.4562 0.6257 -0.6328
vn -0.5252 0.4427 -0.7268
vn -0.5567 0.3120 -0.7699
vn -0.5724 0.2138 -0.7916
vn -0.5806 0.1343 -0.8030
vn -0.5847 0.0640 -0.8087
vn -0.5861 -0.0199 -0.8100
vn -0.5806 -0.1408 -0.8019
vn -0.5621 -0.2839 -0.7768
vn -0.5286 -0.4308 -0.7314
vn -0.4761 -0.5810 -0.6601
vn -0.3993 -0.7295 -0.5553
vn -0.2932 -0.8637 -0.4099
vn -0.1590 -0.9614 -0.2246
vn -0.3064 0.6601 -0.6858
vn -0.3165 0.6313 -0.7080
vn -0.3656 0.4474 -0.8162
vn -0.3880 0.3156 -0.8659
vn -0.3992 0.2164 -0.8910
vn -0.4051 0.1359 -0.9041
vn -0.4080 0.0648 -0.9107
vn -0.4090 -0.0202 -0.9123
vn -0.4051 -0.1426 -0.9031
vn -0.3919 -0.2873 -0.8740
vn -0.3680 -0.4355 -0.8215
vn -0.3307 -0.5862 -0.7396
vn -0.2765 -0.7342 -0.6201
vn -0.2021 -0.8668 -0.4558
vn -0.1091 -0.9624 -0.2487
vn -0.1570 0.6629 -0.7321
vn -0.1621 0.6350 -0.7553
vn -0.1877 0.4507 -0.8727
vn -0.1994 0.3181 -0.9268
vn -0.2052 0.2182 -0.9541
vn -0.2083 0.1371 -0.9684
vn -0.2098 0.0654 -0.9755
vn -0.2104 -0.0204 -0.9774
vn -0.2084 -0.1439 -0.9674
vn -0.2014 -0.2897 -0.9357
vn -0.1890 -0.4387 -0.8785
vn -0.1696 -0.5897 -0.7896
vn -0.1414 -0.7374 -0.6605
vn -0.1031 -0.8689 -0.4841
vn -0.0555 -0.9631 -0.2635
vn -0.0000 0.6638 -0.7479
vn -0.0000 0.6363 -0.7715
vn -0.0000 0.3190 -0.9478
vn -0.0000 0.1375 -0.9905
vn -0.0000 -0.2905 -0.9569
vn -0.0000 -0.5910 -0.8067
vn -0.0000 -0.7385 -0.6743
vn -0.0000 -0.8696 -0.4937
vn -0.0000 -0.9633 -0.2684
vt 0.291704 0.500027
vt 0.224376 0.500041
vt 0.224803 0.474275
vt 0.292049 0.472405
vt 0.711685 0.499934
vt 0.678976 0.499917
vt 0.678087 0.469929
vt 0.711025 0.470833
vt 0.365728 0.500010
vt 0.365903 0.470915
vt 0.742366 0.499965
vt 0.742064 0.472631
vt 0.444697 0.499988
vt 0.444634 0.470029
vt 0.771168 0.500006
vt 0.771378 0.476600
vt 0.531915 0.499950
vt 0.531325 0.469619
vt 0.080111 0.500143
vt 0.034332 0.496189
vt 0.079855 0.482545
vt 0.797786 0.494172
vt 0.570148 0.499933
vt 0.569311 0.469382
vt 0.117571 0.500095
vt 0.117701 0.478679
vt 0.607809 0.499920
vt 0.606840 0.469346
vt 0.165771 0.500060
vt 0.166134 0.476315
vt 0.644256 0.499914
vt 0.643266 0.469499
vt 0.604618 0.439497
vt 0.640884 0.439946
vt 0.167136 0.453162
vt 0.225863 0.449026
vt 0.675831 0.440917
vt 0.292847 0.445242
vt 0.709233 0.442758
vt 0.366230 0.442257
vt 0.741085 0.446201
vt 0.444303 0.440485
vt 0.771458 0.453494
vt 0.529985 0.439723
vt 0.033915 0.486972
vt 0.079527 0.465207
vt 0.798437 0.481649
vt 0.567462 0.439418
vt 0.118228 0.457861
vt 0.739572 0.421419
vt 0.771487 0.431308
vt 0.443761 0.411757
vt 0.528136 0.410717
vt 0.033189 0.476979
vt 0.079098 0.448518
vt 0.799541 0.467961
vt 0.564916 0.410520
vt 0.119048 0.438128
vt 0.601521 0.410892
vt 0.168575 0.431053
vt 0.637515 0.411825
vt 0.227324 0.424700
vt 0.672588 0.413518
vt 0.293901 0.418928
vt 0.706596 0.416410
vt 0.366605 0.414419
vt 0.633730 0.385432
vt 0.668917 0.388022
vt 0.228847 0.401583
vt 0.294937 0.393756
vt 0.703576 0.392093
vt 0.366893 0.387707
vt 0.737802 0.398667
vt 0.443066 0.384166
vt 0.771549 0.410545
vt 0.526077 0.382951
vt 0.032121 0.465612
vt 0.078532 0.432796
vt 0.801055 0.452287
vt 0.562094 0.383017
vt 0.119959 0.419775
vt 0.598068 0.383840
vt 0.170128 0.410265
vt 0.030653 0.452302
vt 0.077794 0.418248
vt 0.802921 0.433937
vt 0.771731 0.391510
vt 0.524094 0.356609
vt 0.559413 0.357050
vt 0.120683 0.402890
vt 0.594792 0.358431
vt 0.171417 0.390897
vt 0.630135 0.360803
vt 0.230058 0.379808
vt 0.665433 0.364417
vt 0.295656 0.369888
vt 0.700715 0.369764
vt 0.366941 0.362300
vt 0.736125 0.377967
vt 0.442259 0.357898
vt 0.230607 0.359345
vt 0.295779 0.347309
vt 0.662686 0.342484
vt 0.698538 0.349168
vt 0.366598 0.338190
vt 0.734914 0.359100
vt 0.441343 0.332939
vt 0.772121 0.374267
vt 0.522397 0.331665
vt 0.028721 0.436652
vt 0.076840 0.404928
vt 0.805073 0.412535
vt 0.557202 0.332545
vt 0.120915 0.387390
vt 0.592144 0.334539
vt 0.172074 0.372885
vt 0.627262 0.337752
vt 0.521103 0.307833
vt 0.555676 0.309185
vt 0.075620 0.392736
vt 0.120367 0.373083
vt 0.590441 0.311834
vt 0.171796 0.356033
vt 0.625542 0.315916
vt 0.230206 0.339989
vt 0.661082 0.321887
vt 0.295060 0.325795
vt 0.697503 0.329954
vt 0.365731 0.315131
vt 0.734501 0.341744
vt 0.440284 0.309023
vt 0.772806 0.358649
vt 0.026280 0.418737
vt 0.807439 0.388344
vt 0.660774 0.303396
vt 0.697908 0.313132
vt 0.293408 0.305977
vt 0.364316 0.293669
vt 0.735050 0.327316
vt 0.439078 0.286634
vt 0.773543 0.347339
vt 0.520270 0.285557
vt 0.023732 0.401944
vt 0.074489 0.383830
vt 0.809672 0.366107
vt 0.554996 0.287382
vt 0.119003 0.361176
vt 0.589807 0.290842
vt 0.170512 0.341251
vt 0.625366 0.295850
vt 0.228778 0.322484
vt 0.071942 0.369221
vt 0.116301 0.343817
vt 0.554924 0.256115
vt 0.590451 0.260679
vt 0.167134 0.319987
vt 0.626255 0.267328
vt 0.224986 0.297363
vt 0.662369 0.276850
vt 0.289993 0.277594
vt 0.699268 0.289300
vt 0.361361 0.262774
vt 0.736971 0.306270
vt 0.437334 0.254574
vt 0.775520 0.328986
vt 0.519483 0.253511
vt 0.020708 0.383190
vt 0.812046 0.341295
vt 0.285746 0.249089
vt 0.358028 0.231615
vt 0.701173 0.265949
vt 0.739082 0.286165
vt 0.435322 0.221902
vt 0.777794 0.311953
vt 0.519379 0.221097
vt 0.018171 0.370012
vt 0.069153 0.355544
vt 0.814105 0.324320
vt 0.555514 0.224474
vt 0.113118 0.327064
vt 0.591681 0.230238
vt 0.163006 0.299015
vt 0.627945 0.238659
vt 0.220361 0.272305
vt 0.664402 0.250432
vt 0.556886 0.192341
vt 0.593842 0.199449
vt 0.109372 0.311006
vt 0.157899 0.278434
vt 0.630697 0.209870
vt 0.214607 0.247377
vt 0.667594 0.224216
vt 0.280545 0.220496
vt 0.704610 0.243158
vt 0.354038 0.200119
vt 0.741925 0.267303
vt 0.433258 0.188742
vt 0.779654 0.296690
vt 0.519802 0.188162
vt 0.015440 0.358034
vt 0.066106 0.342887
vt 0.816251 0.307298
vt 0.708702 0.221108
vt 0.745503 0.249555
vt 0.349221 0.168305
vt 0.431019 0.155041
vt 0.782452 0.282869
vt 0.520810 0.154676
vt 0.012372 0.345002
vt 0.063329 0.331446
vt 0.818295 0.295276
vt 0.559212 0.159664
vt 0.104456 0.295846
vt 0.597270 0.168260
vt 0.151545 0.258402
vt 0.634878 0.180980
vt 0.207637 0.222746
vt 0.672099 0.198299
vt 0.273980 0.191817
vt 0.602367 0.136633
vt 0.640917 0.152157
vt 0.143761 0.239074
vt 0.198993 0.198515
vt 0.678819 0.172883
vt 0.266015 0.163172
vt 0.714690 0.200046
vt 0.343419 0.136214
vt 0.750186 0.233337
vt 0.428475 0.120743
vt 0.785577 0.270831
vt 0.522394 0.120622
vt 0.009871 0.337398
vt 0.059887 0.321015
vt 0.821021 0.283757
vt 0.562586 0.126415
vt 0.098923 0.281554
vt 0.755255 0.216445
vt 0.788612 0.259097
vt 0.425965 0.084227
vt 0.524464 0.084077
vt 0.008339 0.332307
vt 0.056575 0.310453
vt 0.822259 0.279204
vt 0.566507 0.090541
vt 0.092832 0.266515
vt 0.608019 0.102704
vt 0.134379 0.218676
vt 0.648334 0.121039
vt 0.188749 0.172796
vt 0.686773 0.145835
vt 0.256844 0.132588
vt 0.722393 0.177751
vt 0.336949 0.101838
vt 0.121769 0.203376
vt 0.175193 0.151458
vt 0.661396 0.094921
vt 0.700800 0.125166
vt 0.244702 0.105552
vt 0.735209 0.162732
vt 0.328158 0.070252
vt 0.764472 0.206477
vt 0.421991 0.049888
vt 0.792413 0.251296
vt 0.526789 0.048612
vt 0.000091 0.312923
vt 0.052884 0.302738
vt 0.830263 0.258389
vt 0.573156 0.056901
vt 0.083819 0.256740
vt 0.618429 0.072187
vt 0.419551 0.002072
vt 0.528059 0.000091
vt 0.000783 0.302182
vt 0.050228 0.288317
vt 0.829523 0.253424
vt 0.794735 0.242802
vt 0.575564 0.008548
vt 0.075222 0.240133
vt 0.621540 0.025871
vt 0.110414 0.177955
vt 0.665695 0.052219
vt 0.163767 0.118138
vt 0.706980 0.088129
vt 0.234844 0.065638
vt 0.743318 0.133908
vt 0.321408 0.025362
vt 0.771926 0.187922
vt 0.707044 0.911673
vt 0.665845 0.947611
vt 0.661492 0.904930
vt 0.700793 0.874652
vt 0.234893 0.934446
vt 0.163765 0.881796
vt 0.175299 0.848521
vt 0.244775 0.894561
vt 0.743286 0.866001
vt 0.735203 0.837214
vt 0.321616 0.974643
vt 0.328367 0.929742
vt 0.771826 0.812167
vt 0.764462 0.793540
vt 0.419789 0.997882
vt 0.422205 0.950051
vt 0.794614 0.757542
vt 0.792394 0.748990
vt 0.528292 0.999909
vt 0.526982 0.951415
vt 0.050470 0.712022
vt 0.000934 0.698859
vt 0.053001 0.697554
vt 0.829518 0.747673
vt 0.575796 0.991386
vt 0.573342 0.943033
vt 0.075483 0.759902
vt 0.084003 0.743266
vt 0.621740 0.973994
vt 0.618560 0.927660
vt 0.110537 0.821880
vt 0.121964 0.796531
vt 0.000227 0.687258
vt 0.056719 0.689824
vt 0.830263 0.741944
vt 0.788571 0.741154
vt 0.524638 0.916014
vt 0.566679 0.909391
vt 0.092945 0.733481
vt 0.608119 0.897093
vt 0.134570 0.781260
vt 0.648431 0.878846
vt 0.188915 0.827209
vt 0.686778 0.853930
vt 0.256941 0.867568
vt 0.722484 0.822192
vt 0.337192 0.898129
vt 0.755346 0.783512
vt 0.426171 0.915680
vt 0.199277 0.801497
vt 0.266063 0.837050
vt 0.678581 0.826778
vt 0.715161 0.799925
vt 0.343746 0.863707
vt 0.750366 0.766534
vt 0.428726 0.879102
vt 0.785413 0.729332
vt 0.522543 0.879606
vt 0.008666 0.667583
vt 0.060135 0.679213
vt 0.822050 0.720821
vt 0.562740 0.873498
vt 0.098855 0.718404
vt 0.602244 0.863007
vt 0.143925 0.760900
vt 0.641295 0.847844
vt 0.521002 0.845143
vt 0.559306 0.840218
vt 0.063252 0.668826
vt 0.104684 0.704201
vt 0.597364 0.831600
vt 0.151706 0.741577
vt 0.635030 0.818892
vt 0.207904 0.777281
vt 0.672109 0.801425
vt 0.274141 0.808287
vt 0.709033 0.778838
vt 0.349400 0.831732
vt 0.745605 0.750305
vt 0.431243 0.845045
vt 0.782703 0.717407
vt 0.009627 0.664507
vt 0.821295 0.717844
vt 0.667633 0.775582
vt 0.704696 0.756708
vt 0.280530 0.779598
vt 0.354162 0.799981
vt 0.742041 0.732592
vt 0.433465 0.811242
vt 0.780278 0.703725
vt 0.519847 0.811763
vt 0.012504 0.654436
vt 0.066188 0.657360
vt 0.818861 0.706029
vt 0.556986 0.807548
vt 0.109412 0.688997
vt 0.593962 0.800466
vt 0.158189 0.721591
vt 0.630822 0.789958
vt 0.215092 0.752591
vt 0.555644 0.775394
vt 0.591819 0.769684
vt 0.113223 0.672900
vt 0.163103 0.701025
vt 0.628100 0.761127
vt 0.220694 0.727716
vt 0.664623 0.749453
vt 0.285906 0.750906
vt 0.701616 0.733793
vt 0.358132 0.768520
vt 0.739299 0.713612
vt 0.435448 0.778185
vt 0.778098 0.688355
vt 0.519509 0.778694
vt 0.015712 0.641577
vt 0.069398 0.644660
vt 0.816641 0.692244
vt 0.699297 0.710267
vt 0.737067 0.693557
vt 0.361479 0.737359
vt 0.437336 0.745579
vt 0.776157 0.671438
vt 0.519692 0.746214
vt 0.018085 0.631447
vt 0.071846 0.631098
vt 0.814638 0.676715
vt 0.555088 0.743715
vt 0.116715 0.656181
vt 0.590632 0.739264
vt 0.167508 0.680090
vt 0.626379 0.732417
vt 0.225152 0.702722
vt 0.662615 0.723145
vt 0.290244 0.722344
vt 0.119624 0.638790
vt 0.170732 0.658807
vt 0.590165 0.709168
vt 0.625155 0.703810
vt 0.228634 0.677624
vt 0.661332 0.696701
vt 0.293790 0.693951
vt 0.697206 0.686255
vt 0.364289 0.706510
vt 0.735095 0.672660
vt 0.439195 0.713403
vt 0.774469 0.653137
vt 0.520411 0.714210
vt 0.020733 0.616663
vt 0.074514 0.616478
vt 0.812867 0.659659
vt 0.555102 0.712465
vt 0.365793 0.684989
vt 0.440378 0.691005
vt 0.734642 0.658242
vt 0.773555 0.641743
vt 0.521229 0.691988
vt 0.023834 0.598140
vt 0.075682 0.607569
vt 0.810297 0.633619
vt 0.555826 0.690694
vt 0.120826 0.626917
vt 0.590575 0.688053
vt 0.172037 0.644015
vt 0.625615 0.683876
vt 0.230208 0.660116
vt 0.661184 0.678019
vt 0.295292 0.674183
vt 0.697251 0.669584
vt 0.592242 0.665318
vt 0.627344 0.662065
vt 0.172311 0.627164
vt 0.230688 0.640750
vt 0.662703 0.657331
vt 0.295940 0.652705
vt 0.698511 0.650505
vt 0.366691 0.661891
vt 0.735121 0.640889
vt 0.441428 0.667076
vt 0.772695 0.626031
vt 0.522507 0.668194
vt 0.026391 0.581483
vt 0.076926 0.595370
vt 0.807851 0.611434
vt 0.557319 0.667327
vt 0.121247 0.612654
vt 0.736356 0.622019
vt 0.772167 0.608705
vt 0.442338 0.642105
vt 0.524184 0.643273
vt 0.028817 0.563654
vt 0.077886 0.582047
vt 0.805340 0.587279
vt 0.559505 0.642818
vt 0.120923 0.597197
vt 0.594873 0.641414
vt 0.171628 0.609161
vt 0.630201 0.639010
vt 0.230174 0.620276
vt 0.665469 0.635376
vt 0.295785 0.630147
vt 0.700793 0.630000
vt 0.367037 0.637757
vt 0.170302 0.589808
vt 0.228968 0.598495
vt 0.633791 0.614379
vt 0.668983 0.611778
vt 0.295044 0.606289
vt 0.703697 0.607728
vt 0.366980 0.612335
vt 0.738022 0.601310
vt 0.443135 0.615827
vt 0.771874 0.589600
vt 0.526149 0.616942
vt 0.030726 0.548053
vt 0.078616 0.567495
vt 0.803108 0.565907
vt 0.562166 0.616849
vt 0.120131 0.580350
vt 0.598134 0.615998
vt 0.443817 0.588228
vt 0.528190 0.589180
vt 0.032171 0.534768
vt 0.079166 0.551771
vt 0.801189 0.547583
vt 0.771718 0.568780
vt 0.564971 0.589345
vt 0.119168 0.562027
vt 0.601575 0.588944
vt 0.168706 0.569038
vt 0.637574 0.587991
vt 0.227429 0.575376
vt 0.672666 0.586298
vt 0.293988 0.581123
vt 0.706719 0.583442
vt 0.366677 0.585613
vt 0.739755 0.578543
vt 0.640933 0.559876
vt 0.675899 0.558911
vt 0.225938 0.551053
vt 0.292909 0.554811
vt 0.709330 0.557107
vt 0.366280 0.557768
vt 0.741214 0.553745
vt 0.444343 0.559495
vt 0.771606 0.546551
vt 0.530022 0.560177
vt 0.033222 0.523412
vt 0.079575 0.535079
vt 0.799634 0.531929
vt 0.567500 0.560447
vt 0.118304 0.542314
vt 0.604659 0.560340
vt 0.167223 0.546944
vt 0.798492 0.518255
vt 0.771450 0.523419
vt 0.531343 0.530281
vt 0.569331 0.530484
vt 0.079879 0.517741
vt 0.117738 0.521508
vt 0.606863 0.530493
vt 0.166177 0.523802
vt 0.643295 0.530327
vt 0.224842 0.525806
vt 0.678125 0.529905
vt 0.292082 0.527649
vt 0.711077 0.529035
vt 0.365929 0.529106
vt 0.742130 0.527304
vt 0.444655 0.529948
vt 0.033933 0.513422
vt 0.034337 0.504206
vt 0.797804 0.505740
s 1
f 2/1/2 476/2/476 10/3/10 11/4/11
f 480/5/480 479/6/479 18/7/18 19/8/19
f 477/9/477 2/1/2 11/4/11 12/10/12
f 481/11/481 480/5/480 19/8/19 20/12/20
f 3/13/3 477/9/477 12/10/12 13/14/13
f 482/15/482 481/11/481 20/12/20 21/16/21
f 4/17/4 3/13/3 13/14/13 14/18/14
f 474/19/474 82/20/82 7/21/7
f 308/22/308 482/15/482 21/16/21
f 5/23/5 4/17/4 14/18/14 15/24/15
f 475/25/475 474/19/474 7/21/7 8/26/8
f 478/27/478 5/23/5 15/24/15 16/28/16
f 1/29/1 475/25/475 8/26/8 9/30/9
f 6/31/6 478/27/478 16/28/16 17/32/17
f 476/2/476 1/29/1 9/30/9 10/3/10
f 479/6/479 6/31/6 17/32/17 18/7/18
f 17/32/17 16/28/16 31/33/31 32/34/32
f 10/3/10 9/30/9 24/35/24 25/36/25
f 18/7/18 17/32/17 32/34/32 33/37/33
f 11/4/11 10/3/10 25/36/25 26/38/26
f 19/8/19 18/7/18 33/37/33 34/39/34
f 12/10/12 11/4/11 26/38/26 27/40/27
f 20/12/20 19/8/19 34/39/34 35/41/35
f 13/14/13 12/10/12 27/40/27 28/42/28
f 21/16/21 20/12/20 35/41/35 36/43/36
f 14/18/14 13/14/13 28/42/28 29/44/29
f 7/21/7 82/45/82 22/46/22
f 308/47/308 21/16/21 36/43/36
f 15/24/15 14/18/14 29/44/29 30/48/30
f 8/26/8 7/21/7 22/46/22 23/49/23
f 16/28/16 15/24/15 30/48/30 31/33/31
f 9/30/9 8/26/8 23/49/23 24/35/24
f 36/43/36 35/41/35 50/50/50 51/51/51
f 29/44/29 28/42/28 43/52/43 44/53/44
f 22/46/22 82/54/82 37/55/37
f 308/56/308 36/43/36 51/51/51
f 30/48/30 29/44/29 44/53/44 45/57/45
f 23/49/23 22/46/22 37/55/37 38/58/38
f 31/33/31 30/48/30 45/57/45 46/59/46
f 24/35/24 23/49/23 38/58/38 39/60/39
f 32/34/32 31/33/31 46/59/46 47/61/47
f 25/36/25 24/35/24 39/60/39 40/62/40
f 33/37/33 32/34/32 47/61/47 48/63/48
f 26/38/26 25/36/25 40/62/40 41/64/41
f 34/39/34 33/37/33 48/63/48 49/65/49
f 27/40/27 26/38/26 41/64/41 42/66/42
f 35/41/35 34/39/34 49/65/49 50/50/50
f 28/42/28 27/40/27 42/66/42 43/52/43
f 48/63/48 47/61/47 62/67/62 63/68/63
f 41/64/41 40/62/40 55/69/55 56/70/56
f 49/65/49 48/63/48 63/68/63 64/71/64
f 42/66/42 41/64/41 56/70/56 57/72/57
f 50/50/50 49/65/49 64/71/64 65/73/65
f 43/52/43 42/66/42 57/72/57 58/74/58
f 51/51/51 50/50/50 65/73/65 66/75/66
f 44/53/44 43/52/43 58/74/58 59/76/59
f 37/55/37 82/77/82 52/78/52
f 308/79/308 51/51/51 66/75/66
f 45/57/45 44/53/44 59/76/59 60/80/60
f 38/58/38 37/55/37 52/78/52 53/81/53
f 46/59/46 45/57/45 60/80/60 61/82/61
f 39/60/39 38/58/38 53/81/53 54/83/54
f 47/61/47 46/59/46 61/82/61 62/67/62
f 40/62/40 39/60/39 54/83/54 55/69/55
f 52/78/52 82/84/82 67/85/67
f 308/86/308 66/75/66 81/87/81
f 60/80/60 59/76/59 74/88/74 75/89/75
f 53/81/53 52/78/52 67/85/67 68/90/68
f 61/82/61 60/80/60 75/89/75 76/91/76
f 54/83/54 53/81/53 68/90/68 69/92/69
f 62/67/62 61/82/61 76/91/76 77/93/77
f 55/69/55 54/83/54 69/92/69 70/94/70
f 63/68/63 62/67/62 77/93/77 78/95/78
f 56/70/56 55/69/55 70/94/70 71/96/71
f 64/71/64 63/68/63 78/95/78 79/97/79
f 57/72/57 56/70/56 71/96/71 72/98/72
f 65/73/65 64/71/64 79/97/79 80/99/80
f 58/74/58 57/72/57 72/98/72 73/100/73
f 66/75/66 65/73/65 80/99/80 81/87/81
f 59/76/59 58/74/58 73/100/73 74/88/74
f 71/96/71 70/94/70 86/101/86 87/102/87
f 79/97/79 78/95/78 94/103/94 95/104/95
f 72/98/72 71/96/71 87/102/87 88/105/88
f 80/99/80 79/97/79 95/104/95 96/106/96
f 73/100/73 72/98/72 88/105/88 89/107/89
f 81/87/81 80/99/80 96/106/96 97/108/97
f 74/88/74 73/100/73 89/107/89 90/109/90
f 67/85/67 82/110/82 83/111/83
f 308/112/308 81/87/81 97/108/97
f 75/89/75 74/88/74 90/109/90 91/113/91
f 68/90/68 67/85/67 83/111/83 84/114/84
f 76/91/76 75/89/75 91/113/91 92/115/92
f 69/92/69 68/90/68 84/114/84 85/116/85
f 77/93/77 76/91/76 92/115/92 93/117/93
f 70/94/70 69/92/69 85/116/85 86/101/86
f 78/95/78 77/93/77 93/117/93 94/103/94
f 91/113/91 90/109/90 105/118/105 106/119/106
f 84/114/84 83/111/83 98/120/98 99/121/99
f 92/115/92 91/113/91 106/119/106 107/122/107
f 85/116/85 84/114/84 99/121/99 100/123/100
f 93/117/93 92/115/92 107/122/107 108/124/108
f 86/101/86 85/116/85 100/123/100 101/125/101
f 94/103/94 93/117/93 108/124/108 109/126/109
f 87/102/87 86/101/86 101/125/101 102/127/102
f 95/104/95 94/103/94 109/126/109 110/128/110
f 88/105/88 87/102/87 102/127/102 103/129/103
f 96/106/96 95/104/95 110/128/110 111/130/111
f 89/107/89 88/105/88 103/129/103 104/131/104
f 97/108/97 96/106/96 111/130/111 112/132/112
f 90/109/90 89/107/89 104/131/104 105/118/105
f 83/111/83 82/133/82 98/120/98
f 308/134/308 97/108/97 112/132/112
f 110/128/110 109/126/109 124/135/124 125/136/125
f 103/129/103 102/127/102 117/137/117 118/138/118
f 111/130/111 110/128/110 125/136/125 126/139/126
f 104/131/104 103/129/103 118/138/118 119/140/119
f 112/132/112 111/130/111 126/139/126 127/141/127
f 105/118/105 104/131/104 119/140/119 120/142/120
f 98/120/98 82/143/82 113/144/113
f 308/145/308 112/132/112 127/141/127
f 106/119/106 105/118/105 120/142/120 121/146/121
f 99/121/99 98/120/98 113/144/113 114/147/114
f 107/122/107 106/119/106 121/146/121 122/148/122
f 100/123/100 99/121/99 114/147/114 115/149/115
f 108/124/108 107/122/107 122/148/122 123/150/123
f 101/125/101 100/123/100 115/149/115 116/151/116
f 109/126/109 108/124/108 123/150/123 124/135/124
f 102/127/102 101/125/101 116/151/116 117/137/117
f 114/147/114 113/144/113 128/152/128 129/153/129
f 122/148/122 121/146/121 136/154/136 137/155/137
f 115/149/115 114/147/114 129/153/129 130/156/130
f 123/150/123 122/148/122 137/155/137 138/157/138
f 116/151/116 115/149/115 130/156/130 131/158/131
f 124/135/124 123/150/123 138/157/138 139/159/139
f 117/137/117 116/151/116 131/158/131 132/160/132
f 125/136/125 124/135/124 139/159/139 140/161/140
f 118/138/118 117/137/117 132/160/132 133/162/133
f 126/139/126 125/136/125 140/161/140 141/163/141
f 119/140/119 118/138/118 133/162/133 134/164/134
f 127/141/127 126/139/126 141/163/141 142/165/142
f 120/142/120 119/140/119 134/164/134 135/166/135
f 113/144/113 82/167/82 128/152/128
f 308/168/308 127/141/127 142/165/142
f 121/146/121 120/142/120 135/166/135 136/154/136
f 133/162/133 132/160/132 147/169/147 148/170/148
f 141/163/141 140/161/140 155/171/155 156/172/156
f 134/164/134 133/162/133 148/170/148 149/173/149
f 142/165/142 141/163/141 156/172/156 157/174/157
f 135/166/135 134/164/134 149/173/149 150/175/150
f 128/152/128 82/176/82 143/177/143
f 308/178/308 142/165/142 157/174/157
f 136/154/136 135/166/135 150/175/150 151/179/151
f 129/153/129 128/152/128 143/177/143 144/180/144
f 137/155/137 136/154/136 151/179/151 152/181/152
f 130/156/130 129/153/129 144/180/144 145/182/145
f 138/157/138 137/155/137 152/181/152 153/183/153
f 131/158/131 130/156/130 145/182/145 146/184/146
f 139/159/139 138/157/138 153/183/153 154/185/154
f 132/160/132 131/158/131 146/184/146 147/169/147
f 140/161/140 139/159/139 154/185/154 155/171/155
f 152/181/152 151/179/151 166/186/166 167/187/167
f 145/182/145 144/180/144 159/188/159 160/189/160
f 153/183/153 152/181/152 167/187/167 168/190/168
f 146/184/146 145/182/145 160/189/160 161/191/161
f 154/185/154 153/183/153 168/190/168 169/192/169
f 147/169/147 146/184/146 161/191/161 162/193/162
f 155/171/155 154/185/154 169/192/169 170/194/170
f 148/170/148 147/169/147 162/193/162 163/195/163
f 156/172/156 155/171/155 170/194/170 171/196/171
f 149/173/149 148/170/148 163/195/163 164/197/164
f 157/174/157 156/172/156 171/196/171 172/198/172
f 150/175/150 149/173/149 164/197/164 165/199/165
f 143/177/143 82/200/82 158/201/158
f 308/202/308 157/174/157 172/198/172
f 151/179/151 150/175/150 165/199/165 166/186/166
f 144/180/144 143/177/143 158/201/158 159/188/159
f 171/196/171 170/194/170 185/203/185 186/204/186
f 164/197/164 163/195/163 178/205/178 179/206/179
f 172/198/172 171/196/171 186/204/186 187/207/187
f 165/199/165 164/197/164 179/206/179 180/208/180
f 158/201/158 82/209/82 173/210/173
f 308/211/308 172/198/172 187/207/187
f 166/186/166 165/199/165 180/208/180 181/212/181
f 159/188/159 158/201/158 173/210/173 174/213/174
f 167/187/167 166/186/166 181/212/181 182/214/182
f 160/189/160 159/188/159 174/213/174 175/215/175
f 168/190/168 167/187/167 182/214/182 183/216/183
f 161/191/161 160/189/160 175/215/175 176/217/176
f 169/192/169 168/190/168 183/216/183 184/218/184
f 162/193/162 161/191/161 176/217/176 177/219/177
f 170/194/170 169/192/169 184/218/184 185/203/185
f 163/195/163 162/193/162 177/219/177 178/205/178
f 183/216/183 182/214/182 197/220/197 198/221/198
f 176/217/176 175/215/175 190/222/190 191/223/191
f 184/218/184 183/216/183 198/221/198 199/224/199
f 177/219/177 176/217/176 191/223/191 192/225/192
f 185/203/185 184/218/184 199/224/199 200/226/200
f 178/205/178 177/219/177 192/225/192 193/227/193
f 186/204/186 185/203/185 200/226/200 201/228/201
f 179/206/179 178/205/178 193/227/193 194/229/194
f 187/207/187 186/204/186 201/228/201 202/230/202
f 180/208/180 179/206/179 194/229/194 195/231/195
f 173/210/173 82/232/82 188/233/188
f 308/234/308 187/207/187 202/230/202
f 181/212/181 180/208/180 195/231/195 196/235/196
f 174/213/174 173/210/173 188/233/188 189/236/189
f 182/214/182 181/212/181 196/235/196 197/220/197
f 175/215/175 174/213/174 189/236/189 190/222/190
f 202/230/202 201/228/201 216/237/216 217/238/217
f 195/231/195 194/229/194 209/239/209 210/240/210
f 188/233/188 82/241/82 203/242/203
f 308/243/308 202/230/202 217/238/217
f 196/235/196 195/231/195 210/240/210 211/244/211
f 189/236/189 188/233/188 203/242/203 204/245/204
f 197/220/197 196/235/196 211/244/211 212/246/212
f 190/222/190 189/236/189 204/245/204 205/247/205
f 198/221/198 197/220/197 212/246/212 213/248/213
f 191/223/191 190/222/190 205/247/205 206/249/206
f 199/224/199 198/221/198 213/248/213 214/250/214
f 192/225/192 191/223/191 206/249/206 207/251/207
f 200/226/200 199/224/199 214/250/214 215/252/215
f 193/227/193 192/225/192 207/251/207 208/253/208
f 201/228/201 200/226/200 215/252/215 216/237/216
f 194/229/194 193/227/193 208/253/208 209/239/209
f 206/249/206 205/247/205 220/254/220 221/255/221
f 214/250/214 213/248/213 228/256/228 229/257/229
f 207/251/207 206/249/206 221/255/221 222/258/222
f 215/252/215 214/250/214 229/257/229 230/259/230
f 208/253/208 207/251/207 222/258/222 223/260/223
f 216/237/216 215/252/215 230/259/230 231/261/231
f 209/239/209 208/253/208 223/260/223 224/262/224
f 217/238/217 216/237/216 231/261/231 232/263/232
f 210/240/210 209/239/209 224/262/224 225/264/225
f 203/242/203 82/265/82 218/266/218
f 308/267/308 217/238/217 232/263/232
f 211/244/211 210/240/210 225/264/225 226/268/226
f 204/245/204 203/242/203 218/266/218 219/269/219
f 212/246/212 211/244/211 226/268/226 227/270/227
f 205/247/205 204/245/204 219/269/219 220/254/220
f 213/248/213 212/246/212 227/270/227 228/256/228
f 225/264/225 224/262/224 239/271/239 240/272/240
f 218/266/218 82/273/82 233/274/233
f 308/275/308 232/263/232 247/276/247
f 226/268/226 225/264/225 240/272/240 241/277/241
f 219/269/219 218/266/218 233/274/233 234/278/234
f 227/270/227 226/268/226 241/277/241 242/279/242
f 220/254/220 219/269/219 234/278/234 235/280/235
f 228/256/228 227/270/227 242/279/242 243/281/243
f 221/255/221 220/254/220 235/280/235 236/282/236
f 229/257/229 228/256/228 243/281/243 244/283/244
f 222/258/222 221/255/221 236/282/236 237/284/237
f 230/259/230 229/257/229 244/283/244 245/285/245
f 223/260/223 222/258/222 237/284/237 238/286/238
f 231/261/231 230/259/230 245/285/245 246/287/246
f 224/262/224 223/260/223 238/286/238 239/271/239
f 232/263/232 231/261/231 246/287/246 247/276/247
f 244/288/244 243/289/243 258/290/258 259/291/259
f 237/292/237 236/293/236 251/294/251 252/295/252
f 245/296/245 244/288/244 259/291/259 260/297/260
f 238/298/238 237/292/237 252/295/252 253/299/253
f 246/300/246 245/296/245 260/297/260 261/301/261
f 239/302/239 238/298/238 253/299/253 254/303/254
f 247/304/247 246/300/246 261/301/261 262/305/262
f 240/306/240 239/302/239 254/303/254 255/307/255
f 233/308/233 82/309/82 248/310/248
f 308/311/308 247/304/247 262/305/262
f 241/312/241 240/306/240 255/307/255 256/313/256
f 234/314/234 233/308/233 248/310/248 249/315/249
f 242/316/242 241/312/241 256/313/256 257/317/257
f 235/318/235 234/314/234 249/315/249 250/319/250
f 243/289/243 242/316/242 257/317/257 258/290/258
f 236/293/236 235/318/235 250/319/250 251/294/251
f 248/310/248 82/320/82 263/321/263
f 308/322/308 262/305/262 277/323/277
f 256/313/256 255/307/255 270/324/270 271/325/271
f 249/315/249 248/310/248 263/321/263 264/326/264
f 257/317/257 256/313/256 271/325/271 272/327/272
f 250/319/250 249/315/249 264/326/264 265/328/265
f 258/290/258 257/317/257 272/327/272 273/329/273
f 251/294/251 250/319/250 265/328/265 266/330/266
f 259/291/259 258/290/258 273/329/273 274/331/274
f 252/295/252 251/294/251 266/330/266 267/332/267
f 260/297/260 259/291/259 274/331/274 275/333/275
f 253/299/253 252/295/252 267/332/267 268/334/268
f 261/301/261 260/297/260 275/333/275 276/335/276
f 254/303/254 253/299/253 268/334/268 269/336/269
f 262/305/262 261/301/261 276/335/276 277/323/277
f 255/307/255 254/303/254 269/336/269 270/324/270
f 267/332/267 266/330/266 281/337/281 282/338/282
f 275/333/275 274/331/274 289/339/289 290/340/290
f 268/334/268 267/332/267 282/338/282 283/341/283
f 276/335/276 275/333/275 290/340/290 291/342/291
f 269/336/269 268/334/268 283/341/283 284/343/284
f 277/323/277 276/335/276 291/342/291 292/344/292
f 270/324/270 269/336/269 284/343/284 285/345/285
f 263/321/263 82/346/82 278/347/278
f 308/348/308 277/323/277 292/344/292
f 271/325/271 270/324/270 285/345/285 286/349/286
f 264/326/264 263/321/263 278/347/278 279/350/279
f 272/327/272 271/325/271 286/349/286 287/351/287
f 265/328/265 264/326/264 279/350/279 280/352/280
f 273/329/273 272/327/272 287/351/287 288/353/288
f 266/330/266 265/328/265 280/352/280 281/337/281
f 274/331/274 273/329/273 288/353/288 289/339/289
f 286/349/286 285/345/285 300/354/300 301/355/301
f 279/350/279 278/347/278 293/356/293 294/357/294
f 287/351/287 286/349/286 301/355/301 302/358/302
f 280/352/280 279/350/279 294/357/294 295/359/295
f 288/353/288 287/351/287 302/358/302 303/360/303
f 281/337/281 280/352/280 295/359/295 296/361/296
f 289/339/289 288/353/288 303/360/303 304/362/304
f 282/338/282 281/337/281 296/361/296 297/363/297
f 290/340/290 289/339/289 304/362/304 305/364/305
f 283/341/283 282/338/282 297/363/297 298/365/298
f 291/342/291 290/340/290 305/364/305 306/366/306
f 284/343/284 283/341/283 298/365/298 299/367/299
f 292/344/292 291/342/291 306/366/306 307/368/307
f 285/345/285 284/343/284 299/367/299 300/354/300
f 278/347/278 82/369/82 293/356/293
f 308/370/308 292/344/292 307/368/307
f 305/364/305 304/362/304 320/371/320 321/372/321
f 298/365/298 297/363/297 313/373/313 314/374/314
f 306/366/306 305/364/305 321/372/321 322/375/322
f 299/367/299 298/365/298 314/374/314 315/376/315
f 307/368/307 306/366/306 322/375/322 323/377/323
f 300/354/300 299/367/299 315/376/315 316/378/316
f 293/356/293 82/379/82 309/380/309
f 308/381/308 307/368/307 323/377/323
f 301/355/301 300/354/300 316/378/316 317/382/317
f 294/357/294 293/356/293 309/380/309 310/383/310
f 302/358/302 301/355/301 317/382/317 318/384/318
f 295/359/295 294/357/294 310/383/310 311/385/311
f 303/360/303 302/358/302 318/384/318 319/386/319
f 296/361/296 295/359/295 311/385/311 312/387/312
f 304/362/304 303/360/303 319/386/319 320/371/320
f 297/363/297 296/361/296 312/387/312 313/373/313
f 318/384/318 317/382/317 332/388/332 333/389/333
f 311/385/311 310/383/310 325/390/325 326/391/326
f 319/386/319 318/384/318 333/389/333 334/392/334
f 312/387/312 311/385/311 326/391/326 327/393/327
f 320/371/320 319/386/319 334/392/334 335/394/335
f 313/373/313 312/387/312 327/393/327 328/395/328
f 321/372/321 320/371/320 335/394/335 336/396/336
f 314/374/314 313/373/313 328/395/328 329/397/329
f 322/375/322 321/372/321 336/396/336 337/398/337
f 315/376/315 314/374/314 329/397/329 330/399/330
f 323/377/323 322/375/322 337/398/337 338/400/338
f 316/378/316 315/376/315 330/399/330 331/401/331
f 309/380/309 82/402/82 324/403/324
f 308/404/308 323/377/323 338/400/338
f 317/382/317 316/378/316 331/401/331 332/388/332
f 310/383/310 309/380/309 324/403/324 325/390/325
f 337/398/337 336/396/336 351/405/351 352/406/352
f 330/399/330 329/397/329 344/407/344 345/408/345
f 338/400/338 337/398/337 352/406/352 353/409/353
f 331/401/331 330/399/330 345/408/345 346/410/346
f 324/403/324 82/411/82 339/412/339
f 308/413/308 338/400/338 353/409/353
f 332/388/332 331/401/331 346/410/346 347/414/347
f 325/390/325 324/403/324 339/412/339 340/415/340
f 333/389/333 332/388/332 347/414/347 348/416/348
f 326/391/326 325/390/325 340/415/340 341/417/341
f 334/392/334 333/389/333 348/416/348 349/418/349
f 327/393/327 326/391/326 341/417/341 342/419/342
f 335/394/335 334/392/334 349/418/349 350/420/350
f 328/395/328 327/393/327 342/419/342 343/421/343
f 336/396/336 335/394/335 350/420/350 351/405/351
f 329/397/329 328/395/328 343/421/343 344/407/344
f 341/417/341 340/415/340 355/422/355 356/423/356
f 349/418/349 348/416/348 363/424/363 364/425/364
f 342/419/342 341/417/341 356/423/356 357/426/357
f 350/420/350 349/418/349 364/425/364 365/427/365
f 343/421/343 342/419/342 357/426/357 358/428/358
f 351/405/351 350/420/350 365/427/365 366/429/366
f 344/407/344 343/421/343 358/428/358 359/430/359
f 352/406/352 351/405/351 366/429/366 367/431/367
f 345/408/345 344/407/344 359/430/359 360/432/360
f 353/409/353 352/406/352 367/431/367 368/433/368
f 346/410/346 345/408/345 360/432/360 361/434/361
f 339/412/339 82/435/82 354/436/354
f 308/437/308 353/409/353 368/433/368
f 347/414/347 346/410/346 361/434/361 362/438/362
f 340/415/340 339/412/339 354/436/354 355/422/355
f 348/416/348 347/414/347 362/438/362 363/424/363
f 360/432/360 359/430/359 374/439/374 375/440/375
f 368/433/368 367/431/367 382/441/382 383/442/383
f 361/434/361 360/432/360 375/440/375 376/443/376
f 354/436/354 82/444/82 369/445/369
f 308/446/308 368/433/368 383/442/383
f 362/438/362 361/434/361 376/443/376 377/447/377
f 355/422/355 354/436/354 369/445/369 370/448/370
f 363/424/363 362/438/362 377/447/377 378/449/378
f 356/423/356 355/422/355 370/448/370 371/450/371
f 364/425/364 363/424/363 378/449/378 379/451/379
f 357/426/357 356/423/356 371/450/371 372/452/372
f 365/427/365 364/425/364 379/451/379 380/453/380
f 358/428/358 357/426/357 372/452/372 373/454/373
f 366/429/366 365/427/365 380/453/380 381/455/381
f 359/430/359 358/428/358 373/454/373 374/439/374
f 367/431/367 366/429/366 381/455/381 382/441/382
f 379/451/379 378/449/378 393/456/393 394/457/394
f 372/452/372 371/450/371 386/458/386 387/459/387
f 380/453/380 379/451/379 394/457/394 395/460/395
f 373/454/373 372/452/372 387/459/387 388/461/388
f 381/455/381 380/453/380 395/460/395 396/462/396
f 374/439/374 373/454/373 388/461/388 389/463/389
f 382/441/382 381/455/381 396/462/396 397/464/397
f 375/440/375 374/439/374 389/463/389 390/465/390
f 383/442/383 382/441/382 397/464/397 398/466/398
f 376/443/376 375/440/375 390/465/390 391/467/391
f 369/445/369 82/468/82 384/469/384
f 308/470/308 383/442/383 398/466/398
f 377/447/377 376/443/376 391/467/391 392/471/392
f 370/448/370 369/445/369 384/469/384 385/472/385
f 378/449/378 377/447/377 392/471/392 393/456/393
f 371/450/371 370/448/370 385/472/385 386/458/386
f 398/466/398 397/464/397 412/473/412 413/474/413
f 391/467/391 390/465/390 405/475/405 406/476/406
f 384/469/384 82/477/82 399/478/399
f 308/479/308 398/466/398 413/474/413
f 392/471/392 391/467/391 406/476/406 407/480/407
f 385/472/385 384/469/384 399/478/399 400/481/400
f 393/456/393 392/471/392 407/480/407 408/482/408
f 386/458/386 385/472/385 400/481/400 401/483/401
f 394/457/394 393/456/393 408/482/408 409/484/409
f 387/459/387 386/458/386 401/483/401 402/485/402
f 395/460/395 394/457/394 409/484/409 410/486/410
f 388/461/388 387/459/387 402/485/402 403/487/403
f 396/462/396 395/460/395 410/486/410 411/488/411
f 389/463/389 388/461/388 403/487/403 404/489/404
f 397/464/397 396/462/396 411/488/411 412/473/412
f 390/465/390 389/463/389 404/489/404 405/475/405
f 402/485/402 401/483/401 416/490/416 417/491/417
f 410/486/410 409/484/409 424/492/424 425/493/425
f 403/487/403 402/485/402 417/491/417 418/494/418
f 411/488/411 410/486/410 425/493/425 426/495/426
f 404/489/404 403/487/403 418/494/418 419/496/419
f 412/473/412 411/488/411 426/495/426 427/497/427
f 405/475/405 404/489/404 419/496/419 420/498/420
f 413/474/413 412/473/412 427/497/427 428/499/428
f 406/476/406 405/475/405 420/498/420 421/500/421
f 399/478/399 82/501/82 414/502/414
f 308/503/308 413/474/413 428/499/428
f 407/480/407 406/476/406 421/500/421 422/504/422
f 400/481/400 399/478/399 414/502/414 415/505/415
f 408/482/408 407/480/407 422/504/422 423/506/423
f 401/483/401 400/481/400 415/505/415 416/490/416
f 409/484/409 408/482/408 423/506/423 424/492/424
f 421/500/421 420/498/420 435/507/435 436/508/436
f 414/502/414 82/509/82 429/510/429
f 308/511/308 428/499/428 443/512/443
f 422/504/422 421/500/421 436/508/436 437/513/437
f 415/505/415 414/502/414 429/510/429 430/514/430
f 423/506/423 422/504/422 437/513/437 438/515/438
f 416/490/416 415/505/415 430/514/430 431/516/431
f 424/492/424 423/506/423 438/515/438 439/517/439
f 417/491/417 416/490/416 431/516/431 432/518/432
f 425/493/425 424/492/424 439/517/439 440/519/440
f 418/494/418 417/491/417 432/518/432 433/520/433
f 426/495/426 425/493/425 440/519/440 441/521/441
f 419/496/419 418/494/418 433/520/433 434/522/434
f 427/497/427 426/495/426 441/521/441 442/523/442
f 420/498/420 419/496/419 434/522/434 435/507/435
f 428/499/428 427/497/427 442/523/442 443/512/443
f 440/519/440 439/517/439 454/524/454 455/525/455
f 433/520/433 432/518/432 447/526/447 448/527/448
f 441/521/441 440/519/440 455/525/455 456/528/456
f 434/522/434 433/520/433 448/527/448 449/529/449
f 442/523/442 441/521/441 456/528/456 457/530/457
f 435/507/435 434/522/434 449/529/449 450/531/450
f 443/512/443 442/523/442 457/530/457 458/532/458
f 436/508/436 435/507/435 450/531/450 451/533/451
f 429/510/429 82/534/82 444/535/444
f 308/536/308 443/512/443 458/532/458
f 437/513/437 436/508/436 451/533/451 452/537/452
f 430/514/430 429/510/429 444/535/444 445/538/445
f 438/515/438 437/513/437 452/537/452 453/539/453
f 431/516/431 430/514/430 445/538/445 446/540/446
f 439/517/439 438/515/438 453/539/453 454/524/454
f 432/518/432 431/516/431 446/540/446 447/526/447
f 308/541/308 458/532/458 473/542/473
f 452/537/452 451/533/451 466/543/466 467/544/467
f 445/538/445 444/535/444 459/545/459 460/546/460
f 453/539/453 452/537/452 467/544/467 468/547/468
f 446/540/446 445/538/445 460/546/460 461/548/461
f 454/524/454 453/539/453 468/547/468 469/549/469
f 447/526/447 446/540/446 461/548/461 462/550/462
f 455/525/455 454/524/454 469/549/469 470/551/470
f 448/527/448 447/526/447 462/550/462 463/552/463
f 456/528/456 455/525/455 470/551/470 471/553/471
f 449/529/449 448/527/448 463/552/463 464/554/464
f 457/530/457 456/528/456 471/553/471 472/555/472
f 450/531/450 449/529/449 464/554/464 465/556/465
f 458/532/458 457/530/457 472/555/472 473/542/473
f 451/533/451 450/531/450 465/556/465 466/543/466
f 444/535/444 82/557/82 459/545/459
f 471/553/471 470/551/470 479/6/479 480/5/480
f 464/554/464 463/552/463 2/1/2 477/9/477
f 472/555/472 471/553/471 480/5/480 481/11/481
f 465/556/465 464/554/464 477/9/477 3/13/3
f 473/542/473 472/555/472 481/11/481 482/15/482
f 466/543/466 465/556/465 3/13/3 4/17/4
f 459/545/459 82/558/82 474/19/474
f 308/559/308 473/542/473 482/15/482
f 467/544/467 466/543/466 4/17/4 5/23/5
f 460/546/460 459/545/459 474/19/474 475/25/475
f 468/547/468 467/544/467 5/23/5 478/27/478
f 461/548/461 460/546/460 475/25/475 1/29/1
f 469/549/469 468/547/468 478/27/478 6/31/6
f 462/550/462 461/548/461 1/29/1 476/2/476
f 470/551/470 469/549/469 6/31/6 479/6/479
f 463/552/463 462/550/462 476/2/476 2/1/2
