# Blender 4.5.2 LTS
# www.blender.org
mtllib orange slice.mtl
o Sphere.008
v -1.913415 7.002422 0.380602
v -3.753301 7.067030 0.746578
v -5.448947 6.651757 1.083861
v -6.935198 5.656854 1.379496
v -8.154928 4.444562 1.622114
v -9.061271 3.061468 1.802399
v -9.619394 1.560723 1.913414
v -9.807845 0.000000 1.950897
v -9.619394 -1.560723 1.913414
v -9.061271 -3.061468 1.802399
v -8.154928 -4.444562 1.622114
v -6.935198 -5.656854 1.379496
v -5.448947 -6.651757 1.083861
v -3.753301 -7.067030 0.746578
v -1.913415 -7.002422 0.380602
v -1.950901 7.002422 -0.000000
v -3.826833 7.067030 -0.000001
v -5.555698 6.651757 -0.000002
v -7.071066 5.656854 -0.000000
v -8.314692 4.444562 -0.000002
v -9.238791 3.061468 -0.000000
v -9.807848 1.560723 -0.000003
v -9.999990 0.000000 -0.000005
v -9.807848 -1.560723 -0.000003
v -9.238791 -3.061468 -0.000000
v -8.314692 -4.444562 -0.000002
v -7.071066 -5.656854 -0.000000
v -5.555698 -6.651757 -0.000002
v -3.826833 -7.067030 -0.000001
v -1.950901 -7.002422 -0.000000
v -1.913415 7.002422 -0.380602
v -3.753301 7.067030 -0.746579
v -5.448946 6.651757 -1.083865
v -6.935197 5.656854 -1.379497
v -8.154927 4.444562 -1.622118
v -9.061271 3.061468 -1.802399
v -9.619393 1.560723 -1.913419
v -9.807843 0.000000 -1.950906
v -9.619393 -1.560723 -1.913419
v -9.061271 -3.061468 -1.802399
v -8.154927 -4.444562 -1.622118
v -6.935197 -5.656854 -1.379497
v -5.448946 -6.651757 -1.083865
v -3.753301 -7.067030 -0.746579
v -1.913415 -7.002422 -0.380602
v -1.282407 6.844416 -0.200915
v -1.309759 6.846258 -0.000000
v -1.282407 6.844416 0.200915
v -1.176571 6.831518 -0.000000
v -1.282407 -6.844416 0.200915
v -1.309759 -6.846258 -0.000000
v -1.282407 -6.844416 -0.200915
v -1.176571 -6.831518 -0.000000
v -0.707855 5.980199 0.175601
v -0.707886 5.980242 -0.175612
v -0.554054 5.980221 -0.000006
v -0.566392 5.656854 0.170895
v -0.566413 5.656854 -0.170903
v -0.412587 5.656854 -0.000004
v -0.566920 4.444562 0.171113
v -0.566943 4.444562 -0.171123
v -0.413116 4.444562 -0.000005
v -1.217227 3.061468 0.183037
v -1.217254 3.061468 -0.183049
v -1.063425 3.061468 -0.000006
v -1.632605 1.560724 0.190090
v -1.632639 1.560724 -0.190106
v -1.478806 1.560724 -0.000008
v -1.841252 0.000000 0.193735
v -1.841294 0.000000 -0.193756
v -1.687457 0.000000 -0.000010
v -1.632537 -1.571158 0.190078
v -1.632710 -1.570152 -0.190139
v -1.478808 -1.570655 -0.000031
v -1.217277 -3.061468 0.183059
v -1.217224 -3.061468 -0.183035
v -1.063434 -3.061468 0.000012
v -0.566962 -4.444562 0.171131
v -0.566917 -4.444562 -0.171112
v -0.413124 -4.444562 0.000009
v -0.566430 -5.656854 0.170910
v -0.566389 -5.656854 -0.170894
v -0.412594 -5.656854 0.000008
v -0.707851 -5.980194 -0.175599
v -0.707910 -5.980277 0.175621
v -0.554065 -5.980236 0.000011
v -1.510452 6.729766 0.594282
v -1.884124 7.002422 0.477161
v -3.616516 7.067030 1.197499
v -4.027329 6.824599 1.668173
v -5.213148 6.651757 1.861190
v -4.867306 6.611464 2.009047
v -6.612604 5.656854 2.442948
v -6.221601 5.656854 2.573748
v -7.761028 4.444562 2.920630
v -7.381538 4.444562 3.054843
v -8.614353 3.061468 3.275688
v -8.247427 3.061468 3.403553
v -9.139834 1.560723 3.494313
v -8.780485 1.560723 3.618618
v -9.317264 0.000000 3.568130
v -8.960895 0.000000 3.690347
v -9.139834 -1.560723 3.494314
v -8.780429 -1.561117 3.618592
v -8.247495 -3.061468 3.403584
v -8.614353 -3.061468 3.275689
v -7.761028 -4.444562 2.920631
v -7.381598 -4.444562 3.054868
v -6.612603 -5.656854 2.442948
v -6.221655 -5.656854 2.573771
v -5.213148 -6.651757 1.861191
v -4.867342 -6.611474 2.009062
v -3.616515 -7.067030 1.197500
v -4.027392 -6.824601 1.668199
v -1.884124 -7.002422 0.477162
v -1.510444 -6.729766 0.594275
v -1.884124 7.002422 -0.477162
v -1.510448 6.729766 -0.594279
v -4.027333 6.824599 -1.668177
v -3.616515 7.067030 -1.197500
v -4.867302 6.611466 -2.009048
v -5.213146 6.651757 -1.861193
v -6.221602 5.656854 -2.573749
v -6.612603 5.656854 -2.442948
v -7.381538 4.444562 -3.054847
v -7.761026 4.444562 -2.920633
v -8.247428 3.061468 -3.403554
v -8.614353 3.061468 -3.275688
v -8.780484 1.560723 -3.618623
v -9.139832 1.560723 -3.494318
v -8.960893 0.000000 -3.690356
v -9.317260 0.000000 -3.568137
v -8.780435 -1.561079 -3.618599
v -9.139832 -1.560723 -3.494318
v -8.247489 -3.061468 -3.403582
v -8.614352 -3.061468 -3.275689
v -7.381592 -4.444562 -3.054870
v -7.761026 -4.444562 -2.920634
v -6.221651 -5.656854 -2.573770
v -6.612603 -5.656854 -2.442949
v -4.867343 -6.611470 -2.009066
v -5.213146 -6.651757 -1.861194
v -4.027380 -6.824601 -1.668197
v -3.616515 -7.067030 -1.197501
v -1.510452 -6.729766 -0.594282
v -1.884124 -7.002422 -0.477162
v -1.050064 6.601746 0.314126
v -1.176571 6.831518 0.000500
v -1.050067 6.601748 -0.314127
v -1.176571 6.831518 -0.000500
v -1.050064 -6.601746 -0.314126
v -1.176571 -6.831518 -0.000500
v -1.050069 -6.601749 0.314128
v -1.176571 -6.831518 0.000500
vn 0.1258 -0.9917 -0.0255
vn -0.1057 -0.9942 0.0210
vn -0.1077 -0.9942 -0.0000
vn 0.1293 -0.9916 -0.0000
vn -0.9808 -0.0000 0.1951
vn -0.9521 0.2399 0.1894
vn -0.9708 0.2399 -0.0000
vn -1.0000 -0.0000 -0.0000
vn -0.9521 -0.2399 0.1894
vn -0.9708 -0.2399 -0.0000
vn -0.1057 0.9942 0.0210
vn 0.1258 0.9917 -0.0255
vn 0.1293 0.9916 -0.0000
vn -0.1077 0.9942 -0.0000
vn -0.8722 -0.4574 0.1735
vn -0.8893 -0.4574 -0.0000
vn -0.3929 0.9162 0.0782
vn -0.4006 0.9162 -0.0000
vn -0.7550 -0.6383 0.1502
vn -0.7698 -0.6383 -0.0000
vn -0.6159 0.7782 0.1225
vn -0.6280 0.7782 -0.0000
vn -0.6159 -0.7782 0.1225
vn -0.6280 -0.7782 -0.0000
vn -0.7550 0.6383 0.1502
vn -0.7698 0.6383 -0.0000
vn -0.3929 -0.9162 0.0782
vn -0.4006 -0.9162 -0.0000
vn -0.8722 0.4574 0.1735
vn -0.8893 0.4574 -0.0000
vn -0.7550 -0.6383 -0.1502
vn -0.6159 -0.7782 -0.1225
vn -0.6159 0.7782 -0.1225
vn -0.7550 0.6383 -0.1502
vn -0.3929 -0.9162 -0.0782
vn -0.8722 0.4574 -0.1735
vn -0.1057 -0.9942 -0.0210
vn -0.9521 0.2399 -0.1894
vn 0.1258 -0.9917 0.0255
vn -0.9808 -0.0000 -0.1951
vn -0.9521 -0.2399 -0.1894
vn 0.1258 0.9917 0.0255
vn -0.1057 0.9942 -0.0210
vn -0.8722 -0.4574 -0.1735
vn -0.3929 0.9162 -0.0782
vn 0.6587 0.2529 0.7086
vn 0.5950 0.0974 0.7978
vn 0.9813 0.1924 -0.0000
vn 0.8884 0.4591 -0.0000
vn 0.5950 0.0973 -0.7978
vn 0.6587 0.2529 -0.7086
vn 0.5974 -0.1241 0.7923
vn 0.9783 -0.2071 -0.0000
vn 0.5973 -0.1241 -0.7923
vn 0.5855 -0.1773 0.7910
vn 0.9350 -0.3547 -0.0000
vn 0.5855 -0.1773 -0.7910
vn 0.6096 -0.1031 0.7860
vn 0.9791 -0.2032 -0.0001
vn 0.6096 -0.1031 -0.7860
vn 0.6144 -0.0002 0.7890
vn 1.0000 -0.0004 -0.0001
vn 0.6143 -0.0002 -0.7890
vn 0.6095 0.1033 0.7860
vn 0.9790 0.2037 -0.0000
vn 0.6095 0.1032 -0.7860
vn 0.5855 0.1777 0.7909
vn 0.9347 0.3554 0.0001
vn 0.5856 0.1778 -0.7909
vn 0.5973 0.1241 0.7924
vn 0.9783 0.2071 0.0001
vn 0.5974 0.1241 -0.7923
vn 0.5949 -0.0973 0.7978
vn 0.9813 -0.1924 0.0001
vn 0.5950 -0.0974 -0.7978
vn 0.6587 -0.2529 0.7086
vn 0.8884 -0.4591 0.0001
vn 0.6587 -0.2529 -0.7086
vn 0.3756 0.8914 0.2535
vn 0.1991 0.9800 0.0018
vn 0.4125 0.8800 -0.2356
vn 0.1787 -0.9839 -0.0000
vn 0.4125 -0.8800 0.2356
vn 0.4125 -0.8800 -0.2356
vn 0.6920 -0.4514 -0.5634
vn 0.4583 -0.4336 -0.7758
vn 0.2334 -0.9327 0.2750
vn 0.2334 0.9327 0.2749
vn 0.0569 0.9469 0.3166
vn 0.2004 0.5769 0.7919
vn 0.4583 0.4336 0.7758
vn -0.2952 0.8860 0.3576
vn 0.1158 0.5948 0.7955
vn -0.4632 0.7427 0.4836
vn 0.0564 0.4096 0.9105
vn -0.5673 0.6017 0.5622
vn 0.0365 0.2691 0.9624
vn -0.6517 0.4262 0.6275
vn 0.0327 0.1596 0.9866
vn -0.7074 0.2216 0.6712
vn 0.0359 0.0740 0.9966
vn -0.7270 -0.0000 0.6866
vn 0.0374 -0.0000 0.9993
vn -0.7074 -0.2215 0.6712
vn 0.0359 -0.0740 0.9966
vn -0.6517 -0.4262 0.6274
vn -0.5674 -0.6017 0.5622
vn 0.0365 -0.2692 0.9624
vn 0.0326 -0.1595 0.9867
vn -0.4632 -0.7427 0.4836
vn 0.0563 -0.4096 0.9105
vn -0.2952 -0.8860 0.3575
vn 0.1157 -0.5949 0.7955
vn 0.0569 -0.9469 0.3166
vn 0.2004 -0.5769 0.7918
vn 0.4583 -0.4336 0.7758
vn 0.4583 0.4336 -0.7758
vn 0.2004 0.5769 -0.7919
vn 0.0569 0.9469 -0.3166
vn 0.2334 0.9327 -0.2749
vn 0.1158 0.5948 -0.7955
vn -0.2952 0.8860 -0.3575
vn 0.0564 0.4096 -0.9105
vn -0.4632 0.7427 -0.4836
vn 0.0365 0.2691 -0.9624
vn -0.5673 0.6017 -0.5622
vn 0.0327 0.1596 -0.9866
vn -0.6517 0.4262 -0.6275
vn 0.0359 0.0740 -0.9966
vn -0.7074 0.2216 -0.6712
vn 0.0374 -0.0000 -0.9993
vn -0.7270 -0.0000 -0.6866
vn 0.0359 -0.0740 -0.9966
vn -0.7074 -0.2216 -0.6712
vn 0.0326 -0.1595 -0.9867
vn -0.6517 -0.4262 -0.6274
vn 0.0365 -0.2691 -0.9624
vn -0.5674 -0.6017 -0.5622
vn 0.0563 -0.4096 -0.9105
vn -0.4632 -0.7427 -0.4836
vn 0.1157 -0.5949 -0.7955
vn -0.2952 -0.8860 -0.3575
vn 0.2004 -0.5769 -0.7918
vn 0.0569 -0.9469 -0.3166
vn 0.2334 -0.9327 -0.2749
vn 0.6928 0.4155 0.5895
vn 0.6920 -0.4513 0.5634
vn 0.5418 -0.8284 0.1419
vn 0.6920 0.4514 -0.5634
vn 0.8143 0.5067 0.2831
vn 0.8490 0.5283 -0.0000
vn 0.7238 0.6281 -0.2857
vn 0.7238 -0.6281 -0.2857
vn 0.8490 -0.5283 -0.0000
vn 0.3718 0.9181 -0.1373
vn 0.1100 0.9939 0.0059
vn 0.1100 0.9939 -0.0059
vn 0.6237 0.7289 0.2824
vt 0.129770 0.966140
vt 0.114782 0.901508
vt 0.141133 0.898285
vt 0.143288 0.964928
vt 0.059228 0.497302
vt 0.058447 0.428478
vt 0.126098 0.427361
vt 0.128471 0.495042
vt 0.062897 0.566044
vt 0.130476 0.562733
vt 0.087655 0.090409
vt 0.098297 0.024871
vt 0.111868 0.025185
vt 0.114198 0.091850
vt 0.068978 0.634652
vt 0.132495 0.630527
vt 0.078110 0.153483
vt 0.116523 0.155160
vt 0.077358 0.703120
vt 0.134840 0.698440
vt 0.070069 0.222114
vt 0.118965 0.223536
vt 0.088148 0.771317
vt 0.136834 0.766589
vt 0.063906 0.290827
vt 0.121566 0.291661
vt 0.100888 0.839277
vt 0.139132 0.834970
vt 0.060048 0.359650
vt 0.123703 0.359581
vt 0.192250 0.699436
vt 0.185915 0.768207
vt 0.167831 0.218588
vt 0.178777 0.286836
vt 0.177457 0.836809
vt 0.187559 0.355286
vt 0.167665 0.899823
vt 0.193683 0.423960
vt 0.156856 0.965279
vt 0.197277 0.492795
vt 0.198140 0.561708
vt 0.125474 0.023995
vt 0.140481 0.088540
vt 0.196490 0.630604
vt 0.154652 0.150693
vt 0.311346 0.588153
vt 0.312062 0.573371
vt 0.320198 0.572931
vt 0.319660 0.587191
vt 0.328388 0.573411
vt 0.326962 0.590705
vt 0.311664 0.519112
vt 0.319655 0.520055
vt 0.327615 0.518888
vt 0.310379 0.454163
vt 0.318698 0.455574
vt 0.326973 0.453915
vt 0.309087 0.386632
vt 0.317677 0.387369
vt 0.326241 0.386375
vt 0.307874 0.317797
vt 0.316632 0.317667
vt 0.325391 0.317534
vt 0.307017 0.248497
vt 0.315582 0.247527
vt 0.324173 0.248285
vt 0.306293 0.181413
vt 0.314566 0.179750
vt 0.322885 0.181165
vt 0.305643 0.116441
vt 0.313603 0.115270
vt 0.321594 0.116203
vt 0.304648 0.062061
vt 0.312812 0.062396
vt 0.320962 0.061818
vt 0.304654 0.046108
vt 0.312600 0.048137
vt 0.320485 0.045883
vt 0.101612 0.001407
vt 0.108668 0.001228
vt 0.113721 0.001024
vt 0.120768 0.000820
vt 0.141637 0.989057
vt 0.134586 0.989327
vt 0.153493 0.988730
vt 0.146437 0.988897
vt 0.278433 0.999819
vt 0.266605 0.992377
vt 0.277616 0.979596
vt 0.134202 0.989948
vt 0.126330 0.967059
vt 0.295037 0.030747
vt 0.300524 0.096983
vt 0.287541 0.117542
vt 0.279612 0.020404
vt 0.296006 0.158644
vt 0.285255 0.150860
vt 0.292798 0.226635
vt 0.280719 0.218595
vt 0.292261 0.294983
vt 0.279348 0.289108
vt 0.292528 0.363313
vt 0.279381 0.359451
vt 0.292898 0.431639
vt 0.279625 0.429741
vt 0.293197 0.500000
vt 0.279824 0.499999
vt 0.292896 0.568362
vt 0.279624 0.570276
vt 0.292524 0.636687
vt 0.292258 0.705017
vt 0.279346 0.710891
vt 0.279379 0.640547
vt 0.292795 0.773365
vt 0.280717 0.781403
vt 0.296003 0.841356
vt 0.285253 0.849139
vt 0.300523 0.903018
vt 0.287540 0.882456
vt 0.295037 0.969253
vt 0.279612 0.979597
vt 0.277616 0.020403
vt 0.269687 0.117542
vt 0.256704 0.096982
vt 0.262191 0.030747
vt 0.271974 0.150859
vt 0.261222 0.158643
vt 0.276509 0.218595
vt 0.264430 0.226635
vt 0.277880 0.289107
vt 0.264967 0.294983
vt 0.277847 0.359451
vt 0.264701 0.363313
vt 0.277603 0.429741
vt 0.264330 0.431639
vt 0.277404 0.499999
vt 0.264031 0.499999
vt 0.277604 0.570275
vt 0.264332 0.568362
vt 0.277849 0.640547
vt 0.264704 0.636686
vt 0.277882 0.710890
vt 0.264970 0.705016
vt 0.276511 0.781403
vt 0.264433 0.773364
vt 0.271976 0.849139
vt 0.261225 0.841356
vt 0.269688 0.882456
vt 0.256706 0.903017
vt 0.262191 0.969253
vt 0.290623 0.992377
vt 0.653577 0.031190
vt 0.688839 0.000181
vt 0.785086 0.002741
vt 0.815845 0.014272
vt 0.071460 0.086361
vt 0.094803 0.024181
vt 0.669496 0.004146
vt 0.050002 0.147539
vt 0.863113 0.059086
vt 0.647469 0.045443
vt 0.031268 0.215733
vt 0.902638 0.113873
vt 0.642647 0.099861
vt 0.016282 0.285232
vt 0.931621 0.174459
vt 0.659265 0.164286
vt 0.005811 0.355906
vt 0.949554 0.238941
vt 0.669403 0.233624
vt 0.000232 0.427374
vt 0.956184 0.305412
vt 0.674456 0.305412
vt 0.000181 0.499213
vt 0.949548 0.371899
vt 0.669415 0.377678
vt 0.004878 0.570918
vt 0.015102 0.641934
vt 0.931628 0.436366
vt 0.659264 0.446540
vt 0.902642 0.496951
vt 0.642647 0.510966
vt 0.030212 0.711868
vt 0.863117 0.551738
vt 0.647471 0.565384
vt 0.049867 0.780322
vt 0.815849 0.596553
vt 0.653580 0.579641
vt 0.073257 0.847150
vt 0.785090 0.608085
vt 0.688840 0.610646
vt 0.098903 0.906657
vt 0.669498 0.606682
vt 0.311906 0.004803
vt 0.300885 0.015959
vt 0.304489 0.002034
vt 0.339679 0.579640
vt 0.501946 0.596556
vt 0.471187 0.608087
vt 0.374940 0.610647
vt 0.128915 0.023079
vt 0.156346 0.083357
vt 0.355598 0.606682
vt 0.182245 0.142666
vt 0.206057 0.209418
vt 0.333571 0.565385
vt 0.549214 0.551741
vt 0.225917 0.277885
vt 0.328749 0.510967
vt 0.588739 0.496955
vt 0.241394 0.347880
vt 0.345367 0.446541
vt 0.617722 0.436370
vt 0.251690 0.419058
vt 0.355505 0.377203
vt 0.635656 0.371887
vt 0.256343 0.490884
vt 0.360559 0.305415
vt 0.642286 0.305417
vt 0.256343 0.562841
vt 0.355522 0.233195
vt 0.635651 0.238932
vt 0.250696 0.634473
vt 0.345365 0.164287
vt 0.617730 0.174463
vt 0.239879 0.705233
vt 0.328749 0.099860
vt 0.588745 0.113878
vt 0.224673 0.774755
vt 0.333573 0.045442
vt 0.549220 0.059091
vt 0.205539 0.842896
vt 0.339681 0.031189
vt 0.501953 0.014275
vt 0.183844 0.903924
vt 0.374945 0.000181
vt 0.471194 0.002743
vt 0.160348 0.965976
vt 0.153930 0.989318
vt 0.355602 0.004145
vt 0.309230 0.631222
vt 0.301971 0.616380
vt 0.309556 0.631114
vt 0.322996 0.621415
vt 0.309978 0.631224
vt 0.319379 0.001829
vt 0.323396 0.015643
vt 0.312108 0.004921
vt 0.312033 0.005265
vt 0.278795 0.999819
vt 0.311884 0.000181
vt 0.266605 0.007623
vt 0.121076 0.000181
vt 0.278433 0.000181
vt 0.318502 0.633578
vt 0.310182 0.631650
vt 0.312676 0.636613
vt 0.310222 0.631821
vt 0.309487 0.631194
vt 0.305005 0.634099
vt 0.300885 0.629002
vt 0.290623 0.007623
vt 0.101183 0.000828
vt 0.278795 0.000181
s 1
f 15/1/1 14/2/2 29/3/3 30/4/4
f 8/5/5 7/6/6 22/7/7 23/8/8
f 9/9/9 8/5/5 23/8/8 24/10/10
f 2/11/11 1/12/12 16/13/13 17/14/14
f 10/15/15 9/9/9 24/10/10 25/16/16
f 3/17/17 2/11/11 17/14/14 18/18/18
f 11/19/19 10/15/15 25/16/16 26/20/20
f 4/21/21 3/17/17 18/18/18 19/22/22
f 12/23/23 11/19/19 26/20/20 27/24/24
f 5/25/25 4/21/21 19/22/22 20/26/26
f 13/27/27 12/23/23 27/24/24 28/28/28
f 6/29/29 5/25/25 20/26/26 21/30/30
f 14/2/2 13/27/27 28/28/28 29/3/3
f 7/6/6 6/29/29 21/30/30 22/7/7
f 27/24/24 26/20/20 41/31/31 42/32/32
f 20/26/26 19/22/22 34/33/33 35/34/34
f 28/28/28 27/24/24 42/32/32 43/35/35
f 21/30/30 20/26/26 35/34/34 36/36/36
f 29/3/3 28/28/28 43/35/35 44/37/37
f 22/7/7 21/30/30 36/36/36 37/38/38
f 30/4/4 29/3/3 44/37/37 45/39/39
f 23/8/8 22/7/7 37/38/38 38/40/40
f 24/10/10 23/8/8 38/40/40 39/41/41
f 17/14/14 16/13/13 31/42/42 32/43/43
f 25/16/16 24/10/10 39/41/41 40/44/44
f 18/18/18 17/14/14 32/43/43 33/45/45
f 26/20/20 25/16/16 40/44/44 41/31/31
f 19/22/22 18/18/18 33/45/45 34/33/33
f 54/46/46 57/47/47 59/48/48 56/49/49
f 56/49/49 59/48/48 58/50/50 55/51/51
f 57/47/47 60/52/52 62/53/53 59/48/48
f 59/48/48 62/53/53 61/54/54 58/50/50
f 60/52/52 63/55/55 65/56/56 62/53/53
f 62/53/53 65/56/56 64/57/57 61/54/54
f 63/55/55 66/58/58 68/59/59 65/56/56
f 65/56/56 68/59/59 67/60/60 64/57/57
f 66/58/58 69/61/61 71/62/62 68/59/59
f 68/59/59 71/62/62 70/63/63 67/60/60
f 69/61/61 72/64/64 74/65/65 71/62/62
f 71/62/62 74/65/65 73/66/66 70/63/63
f 72/64/64 75/67/67 77/68/68 74/65/65
f 74/65/65 77/68/68 76/69/69 73/66/66
f 75/67/67 78/70/70 80/71/71 77/68/68
f 77/68/68 80/71/71 79/72/72 76/69/69
f 78/70/70 81/73/73 83/74/74 80/71/71
f 80/71/71 83/74/74 82/75/75 79/72/72
f 81/73/73 85/76/76 86/77/77 83/74/74
f 83/74/74 86/77/77 84/78/78 82/75/75
f 1/12/12 48/79/79 47/80/80 16/13/13
f 16/13/13 47/81/80 46/82/81 31/42/42
f 51/83/82 50/84/83 15/1/1 30/4/4
f 52/85/84 51/86/82 30/4/4 45/39/39
f 151/87/85 52/88/84 145/89/86
f 15/1/1 50/90/83 115/91/87
f 88/92/88 89/93/89 90/94/90 87/95/91
f 89/93/89 91/96/92 92/97/93 90/94/90
f 91/96/92 93/98/94 94/99/95 92/97/93
f 93/98/94 95/100/96 96/101/97 94/99/95
f 95/100/96 97/102/98 98/103/99 96/101/97
f 97/102/98 99/104/100 100/105/101 98/103/99
f 99/104/100 101/106/102 102/107/103 100/105/101
f 101/106/102 103/108/104 104/109/105 102/107/103
f 106/110/106 107/111/107 108/112/108 105/113/109
f 107/111/107 109/114/110 110/115/111 108/112/108
f 109/114/110 111/116/112 112/117/113 110/115/111
f 111/116/112 113/118/114 114/119/115 112/117/113
f 113/118/114 115/120/87 116/121/116 114/119/115
f 118/122/117 119/123/118 120/124/119 117/125/120
f 119/123/118 121/126/121 122/127/122 120/124/119
f 121/126/121 123/128/123 124/129/124 122/127/122
f 123/128/123 125/130/125 126/131/126 124/129/124
f 125/130/125 127/132/127 128/133/128 126/131/126
f 127/132/127 129/134/129 130/135/130 128/133/128
f 129/134/129 131/136/131 132/137/132 130/135/130
f 131/136/131 133/138/133 134/139/134 132/137/132
f 133/138/133 135/140/135 136/141/136 134/139/134
f 135/140/135 137/142/137 138/143/138 136/141/136
f 137/142/137 139/144/139 140/145/140 138/143/138
f 139/144/139 141/146/141 142/147/142 140/145/140
f 141/146/141 143/148/143 144/149/144 142/147/142
f 143/148/143 145/89/86 146/150/145 144/149/144
f 103/108/104 106/110/106 105/113/109 104/109/105
f 115/120/87 50/151/83 116/121/116
f 145/89/86 52/88/84 146/150/145
f 54/152/46 87/153/91 90/154/90 92/155/93
f 89/156/89 88/157/88 1/12/12 2/11/11
f 87/153/91 54/152/46 147/158/146
f 91/159/92 89/156/89 2/11/11 3/17/17
f 54/152/46 92/155/93 94/160/95 57/161/47
f 93/162/94 91/159/92 3/17/17 4/21/21
f 57/161/47 94/160/95 96/163/97 60/164/52
f 95/165/96 93/162/94 4/21/21 5/25/25
f 60/164/52 96/163/97 98/166/99 63/167/55
f 97/168/98 95/165/96 5/25/25 6/29/29
f 63/167/55 98/166/99 100/169/101 66/170/58
f 99/171/100 97/168/98 6/29/29 7/6/6
f 66/170/58 100/169/101 102/172/103 69/173/61
f 101/174/102 99/171/100 7/6/6 8/5/5
f 104/175/105 72/176/64 69/173/61 102/172/103
f 103/177/104 101/174/102 8/5/5 9/9/9
f 10/15/15 106/178/106 103/177/104 9/9/9
f 105/179/109 75/180/67 72/176/64 104/175/105
f 75/180/67 105/179/109 108/181/108 78/182/70
f 107/183/107 106/178/106 10/15/15 11/19/19
f 78/182/70 108/181/108 110/184/111 81/185/73
f 109/186/110 107/183/107 11/19/19 12/23/23
f 81/185/73 110/184/111 112/187/113 85/188/76
f 111/189/112 109/186/110 12/23/23 13/27/27
f 85/188/76 112/187/113 114/190/115 116/191/116
f 113/192/114 111/189/112 13/27/27 14/2/2
f 115/91/87 113/192/114 14/2/2 15/1/1
f 116/191/116 153/193/147 85/188/76
f 154/194/148 153/195/147 50/196/83
f 55/197/51 121/198/121 119/199/118 118/200/117
f 32/43/43 31/42/42 117/201/120 120/202/119
f 118/200/117 149/203/149 55/197/51
f 33/45/45 32/43/43 120/202/119 122/204/122
f 34/33/33 33/45/45 122/204/122 124/205/124
f 121/198/121 55/197/51 58/206/50 123/207/123
f 35/34/34 34/33/33 124/205/124 126/208/126
f 123/207/123 58/206/50 61/209/54 125/210/125
f 36/36/36 35/34/34 126/208/126 128/211/128
f 125/210/125 61/209/54 64/212/57 127/213/127
f 37/38/38 36/36/36 128/211/128 130/214/130
f 127/213/127 64/212/57 67/215/60 129/216/129
f 38/40/40 37/38/38 130/214/130 132/217/132
f 129/216/129 67/215/60 70/218/63 131/219/131
f 39/41/41 38/40/40 132/217/132 134/220/134
f 131/219/131 70/218/63 73/221/66 133/222/133
f 40/44/44 39/41/41 134/220/134 136/223/136
f 133/222/133 73/221/66 76/224/69 135/225/135
f 41/31/31 40/44/44 136/223/136 138/226/138
f 135/225/135 76/224/69 79/227/72 137/228/137
f 42/32/32 41/31/31 138/226/138 140/229/140
f 137/228/137 79/227/72 82/230/75 139/231/139
f 43/35/35 42/32/32 140/229/140 142/232/142
f 139/231/139 82/230/75 84/233/78 141/234/141
f 44/37/37 43/35/35 142/232/142 144/235/144
f 141/234/141 84/233/78 145/236/86 143/237/143
f 45/39/39 44/37/37 144/235/144 146/238/145
f 45/39/39 146/238/145 52/239/84
f 145/236/86 84/233/78 151/240/85
f 148/241/150 147/242/146 54/46/46 56/49/49 49/243/151
f 49/243/151 56/49/49 55/51/51 149/244/149 150/245/152
f 154/194/148 52/246/84 151/247/85 152/248/153
f 86/77/77 53/249/154 152/248/153 151/247/85 84/78/78
f 153/250/147 116/121/116 50/151/83
f 85/76/76 153/195/147 154/194/148 53/249/154 86/77/77
f 51/251/82 154/194/148 50/196/83
f 52/246/84 154/194/148 51/251/82
f 117/125/120 46/252/81 118/122/117
f 31/42/42 46/253/81 117/201/120
f 149/254/149 118/122/117 46/252/81
f 46/255/81 148/256/155 150/245/152 149/244/149
f 47/257/80 49/258/156 148/256/155 46/255/81
s 0
f 49/259/157 47/260/157 48/261/157 148/241/157
f 148/241/158 48/261/158 147/242/158
s 1
f 87/95/91 48/262/79 88/92/88
f 1/12/12 88/157/88 48/263/79
f 87/95/91 147/264/146 48/262/79
l 53 51
