# Blender 4.5.2 LTS
# www.blender.org
mtllib orange knob.mtl
o Icosphere
v 0.269416 7.931742 0.829193
v -0.705357 7.931741 0.512465
v -0.705357 7.931741 -0.512465
v 0.269416 7.931742 -0.829193
v 0.871865 7.931737 0.000000
v 0.000000 8.223987 0.000000
v 0.000002 7.240293 0.000003
v -1.418888 7.240293 -0.474115
v 1.426587 7.240293 0.463519
v 1.426587 7.240293 -0.463519
v 0.000000 7.240293 1.500000
v 0.881678 7.240293 1.213525
v -1.426587 7.240293 0.463519
v -0.881678 7.240293 1.213525
v -0.881678 7.240293 -1.213525
v -1.426587 7.240293 -0.463519
v 0.881678 7.240293 -1.213525
v 0.000000 7.240293 -1.500000
v 0.670830 8.008278 0.487386
v -0.256239 8.008279 0.788606
v -0.829193 8.008277 0.000000
v -0.256239 8.008279 -0.788606
v 0.670830 8.008278 -0.487386
v 0.243683 8.220158 0.749993
v 0.788595 8.220153 0.000000
v -0.637984 8.220157 0.463517
v -0.637984 8.220157 -0.463517
v 0.243683 8.220158 -0.749993
vn 0.5963 0.2616 0.7589
vn -0.5375 0.2616 0.8017
vn -0.9285 0.2616 -0.2634
vn -0.0364 0.2616 -0.9645
vn 0.9060 0.2616 -0.3326
vn 0.0049 1.0000 -0.0035
vn 0.6006 0.6700 -0.4364
vn 0.5963 0.2616 -0.7589
vn -0.0019 1.0000 -0.0057
vn -0.2294 0.6700 -0.7061
vn -0.5375 0.2616 -0.8017
vn -0.0060 1.0000 -0.0000
vn -0.7424 0.6700 -0.0000
vn -0.9285 0.2616 0.2634
vn -0.0019 1.0000 0.0057
vn -0.2294 0.6700 0.7061
vn -0.0364 0.2616 0.9645
vn 0.0049 1.0000 0.0035
vn 0.6006 0.6700 0.4364
vn 0.9060 0.2616 0.3326
vn 0.7036 0.6868 -0.1824
vn 0.6386 0.6140 -0.4639
vn 0.3909 0.6868 -0.6128
vn 0.0440 0.6868 -0.7256
vn -0.2439 0.6140 -0.7507
vn -0.4621 0.6868 -0.5611
vn -0.6765 0.6868 -0.2660
vn -0.7893 0.6140 -0.0000
vn -0.6765 0.6868 0.2660
vn -0.4621 0.6868 0.5611
vn -0.2439 0.6140 0.7507
vn 0.0440 0.6868 0.7256
vn 0.3909 0.6868 0.6128
vn 0.6386 0.6140 0.4639
vn 0.7036 0.6868 0.1824
vn 0.2410 0.6258 -0.7418
vn -0.0000 -1.0000 -0.0000
vn -0.6310 0.6258 -0.4585
vn -0.6310 0.6258 0.4585
vn 0.2410 0.6258 0.7418
vn 0.7800 0.6258 -0.0000
vt 0.727327 0.719349
vt 0.789729 0.500095
vt 0.831373 0.617970
vt 0.310231 0.855042
vt 0.538053 0.846506
vt 0.438891 0.922614
vt 0.051414 0.499980
vt 0.130452 0.714400
vt 0.027277 0.643586
vt 0.310332 0.144886
vt 0.130541 0.285543
vt 0.166359 0.165668
vt 0.727431 0.280797
vt 0.538247 0.153524
vt 0.663251 0.150449
vt 0.439024 0.077421
vt 0.588209 0.000098
vt 0.027368 0.356433
vt 0.000098 0.190556
vt 0.166338 0.834278
vt 0.000098 0.809505
vt 0.663086 0.849556
vt 0.588120 0.999902
vt 0.831364 0.382190
vt 0.951090 0.500056
vt 0.562053 0.314509
vt 0.423994 0.269551
vt 0.291135 0.312592
vt 0.205672 0.430022
vt 0.205584 0.569897
vt 0.291035 0.687331
vt 0.423880 0.730412
vt 0.561959 0.685541
vt 0.644017 0.572623
vt 0.644054 0.427473
vt 0.425304 0.499983
vt 0.204844 0.563899
s 0
f 1/1/1 19/2/1 24/3/1
f 2/4/2 20/5/2 26/6/2
f 3/7/3 21/8/3 27/9/3
f 4/10/4 22/11/4 28/12/4
f 5/13/5 23/14/5 25/15/5
f 25/15/6 28/16/6 6/17/6
f 25/15/7 23/14/7 28/16/7
f 23/14/8 4/10/8 28/16/8
f 28/12/9 27/18/9 6/19/9
f 28/12/10 22/11/10 27/18/10
f 22/11/11 3/7/11 27/18/11
f 27/9/12 26/20/12 6/21/12
f 27/9/13 21/8/13 26/20/13
f 21/8/14 2/4/14 26/20/14
f 26/6/15 24/22/15 6/23/15
f 26/6/16 20/5/16 24/22/16
f 20/5/17 1/1/17 24/22/17
f 24/3/18 25/24/18 6/25/18
f 24/3/19 19/2/19 25/24/19
f 19/2/20 5/13/20 25/24/20
f 10/26/21 23/14/21 5/13/21
f 10/26/22 17/27/22 23/14/22
f 17/27/23 4/10/23 23/14/23
f 18/28/24 22/11/24 4/10/24
f 18/28/25 15/29/25 22/11/25
f 15/29/26 3/7/26 22/11/26
f 16/30/27 21/8/27 3/7/27
f 16/30/28 13/31/28 21/8/28
f 13/31/29 2/4/29 21/8/29
f 14/32/30 20/5/30 2/4/30
f 14/32/31 11/33/31 20/5/31
f 11/33/32 1/1/32 20/5/32
f 12/34/33 19/2/33 1/1/33
f 12/34/34 9/35/34 19/2/34
f 9/35/35 5/13/35 19/2/35
f 17/27/36 18/28/36 4/10/36
f 10/26/37 9/35/37 7/36/37
f 15/29/38 8/37/38 16/30/38 3/7/38
f 13/31/39 14/32/39 2/4/39
f 7/36/37 9/35/37 12/34/37
f 11/33/40 12/34/40 1/1/40
f 13/31/37 16/30/37 8/37/37 7/36/37
f 9/35/41 10/26/41 5/13/41
f 14/32/37 13/31/37 7/36/37
f 17/27/37 10/26/37 7/36/37
f 11/33/37 14/32/37 7/36/37
f 12/34/37 11/33/37 7/36/37
f 18/28/37 17/27/37 7/36/37
f 8/37/37 15/29/37 7/36/37
f 15/29/37 18/28/37 7/36/37
